<?xml version="1.0" encoding="UTF-8" standalone="no"?>
<!-- Created with Inkscape (http://www.inkscape.org/) -->

<svg
   xmlns:dc="http://purl.org/dc/elements/1.1/"
   xmlns:cc="http://creativecommons.org/ns#"
   xmlns:rdf="http://www.w3.org/1999/02/22-rdf-syntax-ns#"
   xmlns:svg="http://www.w3.org/2000/svg"
   xmlns="http://www.w3.org/2000/svg"
   xmlns:sodipodi="http://sodipodi.sourceforge.net/DTD/sodipodi-0.dtd"
   xmlns:inkscape="http://www.inkscape.org/namespaces/inkscape"
   viewBox="0 0 1125 155"
   preserveAspectRatio="xMidYMid meet"
   version="1.1"
   id="svg8"
   sodipodi:docname="wave.svg"
   inkscape:version="0.92.2 (5c3e80d, 2017-08-06)">
  <metadata
     id="metadata3765">
    <rdf:RDF>
      <cc:Work
         rdf:about="">
        <dc:format>image/svg+xml</dc:format>
        <dc:type
           rdf:resource="http://purl.org/dc/dcmitype/StillImage" />
      </cc:Work>
    </rdf:RDF>
  </metadata>
  <defs
     id="defs3763" />
  <sodipodi:namedview
     pagecolor="#ffffff"
     bordercolor="#666666"
     borderopacity="1"
     objecttolerance="10"
     gridtolerance="10"
     guidetolerance="10" />
  <g
     id="layer2"
     style="display:inline">
    <rect
       id="background"
       width="1125.7454"
       height="161.28157"
       x="0"
       y="0" />
    <path
       d="m 634.78996,152.99959 c -1.38372,-2.67619 -2.38637,-24.21854 -2.40907,-51.76245 -0.01,-12.59025 -0.29755,-22.61286 -0.63767,-22.27253 -0.34059,0.34059 -0.84325,7.10966 -1.11758,15.0429 -0.69049,19.96892 -2.16785,33.67642 -3.84764,35.70048 -3.36758,4.05769 -10.6174,0.56732 -14.50019,-6.98106 -1.89328,-3.68065 -3.42454,-3.16577 -9.16967,3.08336 -2.83463,3.0833 -5.69839,5.60604 -6.36391,5.60604 -0.66552,0 -2.76981,-1.31247 -4.67624,-2.91663 -2.06434,-1.73703 -4.18819,-2.63957 -5.25143,-2.23155 -0.98189,0.37672 -3.96838,0.94708 -6.63665,1.26738 -4.03951,0.48512 -5.24722,0.1573 -7.21681,-1.95663 l -2.36546,-2.53899 -4.87491,5.30937 c -2.68118,2.92018 -5.46731,5.30945 -6.19139,5.30945 -2.63653,0 -5.74455,-2.43082 -8.30465,-6.49515 -2.55615,-4.05806 -9.60745,-23.2027 -11.86761,-32.22116 -0.62301,-2.48571 -1.81859,-5.45753 -2.6569,-6.60396 -1.3822,-1.89028 -1.90823,-1.12508 -5.64487,8.21086 -6.02841,15.06181 -11.02282,22.40578 -15.30092,22.49903 -0.92503,0.0215 -3.67985,2.09627 -6.12183,4.61354 -3.61672,3.72825 -4.99872,4.46519 -7.45295,3.97432 -3.42609,-0.68521 -3.65307,-0.0215 -5.01896,14.69322 -0.41392,4.46052 -1.44533,9.00142 -2.29166,10.09083 -2.75954,3.55222 -4.8818,-1.02284 -5.03175,-10.84705 -0.0711,-4.6613 -0.24653,-8.97962 -0.39001,-9.59631 -0.14347,-0.61661 -0.3374,-13.18822 -0.43145,-27.93675 -0.094,-14.74857 -0.44952,-26.53713 -0.78958,-26.19673 -0.3406,0.34059 -0.84325,7.10964 -1.11755,15.04284 -0.69047,19.96896 -2.16784,33.67648 -3.84769,35.70054 -3.36759,4.0577 -10.61736,0.56733 -14.50011,-6.98108 -1.89331,-3.68063 -3.42461,-3.16577 -9.16969,3.08331 -2.83464,3.08338 -5.69845,5.60604 -6.36392,5.60604 -0.66551,0 -2.73415,-1.28244 -4.597,-2.84993 -3.3779,-2.84228 -3.40494,-2.84531 -10.05844,-1.12119 -8.27472,2.1442 -7.50061,2.20275 -10.27732,-0.77768 l -2.33508,-2.50636 -4.87483,5.30937 c -2.68125,2.92018 -5.46737,5.30945 -6.19139,5.30945 -2.63659,0 -5.7446,-2.43082 -8.3047,-6.49515 -2.55611,-4.05806 -9.60742,-23.2027 -11.86761,-32.22116 -0.62296,-2.48571 -1.81854,-5.45753 -2.65691,-6.60396 -1.3822,-1.89028 -1.90818,-1.12508 -5.64488,8.21086 -6.02836,15.06181 -11.02278,22.40578 -15.30093,22.49903 -0.92496,0.0215 -3.6798,2.09627 -6.1218,4.61354 -3.61674,3.72825 -4.99872,4.46519 -7.45295,3.97432 -3.42605,-0.68521 -3.65304,-0.0215 -5.01896,14.69322 -0.41394,4.46052 -1.44533,9.00142 -2.29166,10.09083 -2.7595,3.55222 -4.88183,-1.02284 -5.0317,-10.84705 -0.0711,-4.6613 -0.24655,-8.97962 -0.39003,-9.59631 -0.14345,-0.61661 -0.33739,-13.18822 -0.43146,-27.93675 -0.094,-14.74857 -0.44898,-26.53713 -0.78958,-26.19673 -0.34006,0.34059 -0.84325,7.10964 -1.11757,15.04284 -0.69048,19.96896 -2.16785,33.67648 -3.84764,35.70054 -3.3676,4.0577 -10.61742,0.56733 -14.50019,-6.98108 -1.89329,-3.68063 -3.42455,-3.16577 -9.1697,3.08331 -2.83464,3.08338 -5.69837,5.60604 -6.36389,5.60604 -0.66552,0 -2.7152,-1.26645 -4.55482,-2.81444 -3.32847,-2.80072 -3.37948,-2.80625 -10.4572,-1.13777 -8.95661,2.11142 -8.28775,2.15971 -11.0419,-0.79659 l -2.33506,-2.50636 -4.87491,5.30937 c -2.68117,2.92018 -5.46731,5.30945 -6.19139,5.30945 -2.63655,0 -5.74455,-2.43082 -8.30464,-6.49515 -2.55618,-4.05806 -9.60747,-23.2027 -11.86767,-32.22116 -0.62296,-2.48571 -1.81854,-5.45753 -2.65688,-6.60396 -1.38219,-1.89028 -1.90822,-1.12508 -5.64488,8.21086 -6.02839,15.06181 -11.0228,22.40578 -15.30092,22.49903 -0.925,0.0215 -3.67982,2.09627 -6.12183,4.61354 -3.61672,3.72825 -4.9987,4.46519 -7.45294,3.97432 -3.42605,-0.68521 -3.65306,-0.0215 -5.01896,14.69322 -0.41409,4.46052 -1.44531,9.00142 -2.29164,10.09083 -2.75954,3.55222 -4.88182,-1.02284 -5.03175,-10.84705 -0.0711,-4.6613 -0.24654,-8.97962 -0.38984,-9.59631 -0.14324,-0.61661 -0.33735,-13.18822 -0.43125,-27.93675 -0.094,-14.74857 -0.44926,-26.53713 -0.78958,-26.19673 -0.34038,0.34059 -0.84325,7.10964 -1.11757,15.04284 -0.69049,19.96896 -2.16784,33.67648 -3.84765,35.70054 -3.36761,4.0577 -10.61739,0.56733 -14.50016,-6.98108 -1.8933,-3.68063 -3.42458,-3.16577 -9.16969,3.08331 -2.83467,3.08338 -5.69841,5.60604 -6.36391,5.60604 -0.66552,0 -2.7152,-1.26645 -4.55483,-2.81444 -3.32848,-2.80072 -3.3795,-2.80625 -10.45721,-1.13777 -8.9566,2.11142 -8.28773,2.15971 -11.04192,-0.79659 l -2.33506,-2.50636 -4.8749,5.30937 c -2.68117,2.92018 -5.4673,5.30945 -6.19136,5.30945 -2.63656,0 -5.74458,-2.43082 -8.30467,-6.49515 -2.55614,-4.05806 -9.60743,-23.2027 -11.86763,-32.22116 -0.62296,-2.48571 -1.81856,-5.45753 -2.65688,-6.60396 -1.382185,-1.89028 -1.908225,-1.12508 -5.644878,8.21086 -6.0284,15.06181 -11.022819,22.40578 -15.300932,22.49903 -0.924997,0.0215 -3.67982,2.09627 -6.121827,4.61354 -3.616728,3.72825 -4.998692,4.46519 -7.452956,3.97432 -3.426054,-0.68521 -3.653052,-0.0215 -5.018952,14.69322 -0.414078,4.46052 -1.445314,9.00142 -2.291645,10.09083 -2.759542,3.55222 -4.881821,-1.02284 -5.031741,-10.84705 -0.07115,-4.6613 -0.246545,-8.97962 -0.389849,-9.59631 -0.143263,-0.61661 -0.337353,-13.18822 -0.431295,-27.93675 -0.09395,-14.74857 -0.449257,-26.53713 -0.789589,-26.19673 -0.34033,0.34059 -0.84325,7.10964 -1.117564,15.04284 -0.690377,19.96896 -2.167721,33.67648 -3.847551,35.70054 -3.367591,4.0577 -10.617379,0.56733 -14.500159,-6.98108 -1.893294,-3.68063 -3.424576,-3.16577 -9.169689,3.08331 -2.834647,3.08338 -5.698407,5.60604 -6.363915,5.60604 -0.665509,0 -2.752995,-1.29829 -4.638856,-2.88516 -2.243374,-1.88765 -4.211318,-2.66295 -5.6920631,-2.2424 -1.2447736,0.35336 -3.2723135,0.92902 -4.5056418,1.27892 C 0.5269327,126.93314 0,126.54739 0,124.80408 c 0,-5.25116 9.865543,-6.30945 14.794658,-1.58704 1.729571,1.65703 3.144673,2.45254 3.144673,1.7678 0,-2.02184 5.607483,-8.08739 9.188654,-9.93928 2.990231,-1.5463 3.582488,-1.53959 6.036929,0.0685 1.496786,0.98076 3.987386,3.78857 5.534672,6.23963 5.296437,8.3901 5.616084,7.24684 7.217978,-25.81614 0.642356,-13.2583 1.391945,-33.62084 1.665754,-45.25014 0.273804,-11.62925 0.779535,-21.42582 1.123839,-21.77009 0.344313,-0.34431 0.626004,-3.27564 0.626004,-6.51412 0,-7.28749 0.777277,-9.4351 3.414878,-9.4351 1.577245,0 2.18907,1.10565 2.636928,4.76514 0.747825,6.11061 1.792667,49.1471 1.844207,75.96187 0.02172,11.4083 0.334697,23.11801 0.695031,26.02156 0.650444,5.24115 0.66936,5.26161 2.627596,2.84335 1.691506,-2.08894 2.370309,-2.25457 4.765928,-1.16308 2.523268,1.14969 3.208775,0.8475 7.086506,-3.12365 2.361158,-2.41804 5.210815,-4.39642 6.332578,-4.39642 2.023725,0 8.71742,-9.1385 8.71742,-11.90133 0,-0.75432 0.705823,-2.79984 1.568487,-4.54563 7.962036,-16.11299 8.353025,-16.62883 11.7798,-15.5412 2.60834,0.8279 5.61568,6.18217 7.89077,14.04884 5.16945,17.87461 10.07118,30.51687 12.38714,31.94821 0.60715,0.37513 3.55897,-1.61418 6.5596,-4.42091 6.22949,-5.82698 8.02686,-6.19499 11.6247,-2.38024 2.45842,2.60659 2.75963,2.65521 7.05293,1.13804 6.81388,-2.40779 10.65865,-2.03122 14.23405,1.39427 1.72957,1.657 3.14468,2.45254 3.14468,1.7678 0,-2.02184 5.60748,-8.08739 9.18864,-9.93931 2.99024,-1.54627 3.5825,-1.53959 6.03694,0.0685 1.49678,0.98076 3.98738,3.78857 5.53467,6.23963 5.29644,8.39007 5.61608,7.24683 7.21798,-25.81616 0.64235,-13.2583 1.39194,-33.62085 1.66576,-45.2501 0.2738,-11.62929 0.77953,-21.4258 1.12383,-21.77011 0.34431,-0.34431 0.626,-3.27567 0.626,-6.51408 0,-7.28753 0.77728,-9.43509 3.4149,-9.43509 1.57723,0 2.18906,1.10562 2.63692,4.76513 0.74782,6.11057 1.79266,49.1471 1.84421,75.96185 0.0217,11.40827 0.33469,23.11796 0.69502,26.02151 0.65045,5.24123 0.66936,5.26168 2.6276,2.84335 1.6915,-2.08894 2.3703,-2.25454 4.76593,-1.16305 2.52327,1.14966 3.20877,0.84755 7.08651,-3.12365 2.36115,-2.418 5.21081,-4.39642 6.33257,-4.39642 2.02374,0 8.71743,-9.13845 8.71743,-11.90136 0,-0.75429 0.70582,-2.79976 1.56848,-4.54563 7.96203,-16.11292 8.35303,-16.62875 11.77979,-15.54118 2.60833,0.82788 5.61569,6.18218 7.89077,14.04883 5.16945,17.8746 10.07122,30.51689 12.38716,31.94823 0.60716,0.37513 3.55897,-1.61418 6.55959,-4.42094 6.22953,-5.8269 8.02686,-6.19499 11.62474,-2.38021 2.45839,2.60664 2.75959,2.65519 7.0529,1.13808 6.81385,-2.40785 10.65863,-2.03122 14.23408,1.3942 1.72954,1.65703 3.14462,2.45257 3.14462,1.76785 0,-2.02181 5.60753,-8.08744 9.18865,-9.93928 2.99029,-1.54632 3.58251,-1.53959 6.03698,0.0685 1.49674,0.98069 3.98733,3.7885 5.53467,6.23956 5.29644,8.39015 5.6161,7.24684 7.21794,-25.81614 0.64236,-13.25825 1.39198,-33.62079 1.66578,-45.25009 0.27364,-11.62925 0.77955,-21.42582 1.12381,-21.77014 0.34431,-0.34431 0.62602,-3.27559 0.62602,-6.51405 0,-7.28751 0.77728,-9.43509 3.41487,-9.43509 1.57726,0 2.18905,1.10562 2.63693,4.76513 0.74782,6.11059 1.79267,49.1471 1.84421,75.96185 0.0215,11.40832 0.33474,23.11801 0.69504,26.02155 0.65043,5.24118 0.66934,5.26164 2.62757,2.84331 1.69149,-2.0889 2.37035,-2.25457 4.76594,-1.16303 2.52326,1.14968 3.20882,0.8475 7.08653,-3.12362 2.36115,-2.41807 5.21077,-4.3965 6.33255,-4.3965 2.02376,0 8.7174,-9.13842 8.7174,-11.90129 0,-0.75429 0.70586,-2.79983 1.56849,-4.54563 7.96204,-16.11298 8.35306,-16.6288 11.77985,-15.5412 2.60834,0.82786 5.61563,6.18213 7.89074,14.0488 5.16948,17.87461 10.07116,30.51687 12.38715,31.94821 0.60718,0.37513 3.55897,-1.61413 6.55959,-4.42086 6.22562,-5.82338 8.18872,-6.22278 11.55514,-2.35105 2.28459,2.6275 2.56954,2.67825 6.29615,1.12119 5.97532,-2.4967 10.34279,-2.06371 13.93919,1.38188 1.72959,1.65705 3.14468,2.45259 3.14468,1.76785 0,-2.02184 5.60747,-8.08739 9.18864,-9.93929 2.99027,-1.54634 3.58251,-1.53958 6.03691,0.0685 1.49681,0.98071 3.9874,3.78857 5.5347,6.23963 5.29647,8.3901 5.61607,7.24679 7.21798,-25.81614 0.64234,-13.25832 1.39198,-33.62084 1.66578,-45.25009 0.27364,-11.6293 0.7795,-21.42582 1.12381,-21.77014 0.34431,-0.34431 0.62601,-3.27567 0.62601,-6.51407 0,-7.28754 0.77727,-9.4351 3.41488,-9.4351 1.57725,0 2.18904,1.10557 2.63692,4.76513 0.74783,6.11057 1.79265,49.14713 1.84421,75.96181 0.0215,11.40831 0.33474,23.118 0.69505,26.02157 0.65041,5.24116 0.66934,5.26166 2.62757,2.84335 1.69149,-2.08893 2.37028,-2.25456 4.76592,-1.16307 2.52329,1.14968 3.20876,0.8475 7.08648,-3.12365 2.36117,-2.41804 5.21084,-4.39642 6.33263,-4.39642 2.02375,0 8.71739,-9.1385 8.71739,-11.90134 0,-0.75431 0.70584,-2.79983 1.5685,-4.54565 7.96203,-16.11296 8.35305,-16.6288 11.77977,-15.54118 2.6084,0.82788 5.61571,6.18218 7.89078,14.04885 5.16945,17.87461 10.07119,30.51687 12.38717,31.94821 0.60711,0.37513 3.55897,-1.61418 6.55959,-4.42091 6.21242,-5.81099 8.1902,-6.22104 11.52246,-2.38864 1.62211,1.86557 3.11002,2.5245 4.75769,2.10696 8.03435,-2.03612 10.94539,-1.74437 14.25751,1.42886 1.80196,1.72634 3.27629,2.57861 3.27629,1.89392 0,-2.02181 5.60748,-8.08744 9.18865,-9.93928 2.99021,-1.54635 3.58246,-1.53959 6.03693,0.0685 1.49679,0.98072 3.9874,3.78852 5.53467,6.23958 5.29644,8.39015 5.61609,7.24684 7.21801,-25.81613 0.64234,-13.25825 1.39191,-33.6208 1.66571,-45.2501 0.27364,-11.62925 0.77954,-21.42582 1.12386,-21.77013 0.34431,-0.34432 0.62597,-3.2756 0.62597,-6.51408 0,-7.28749 0.77733,-9.43509 3.41493,-9.43509 1.57721,0 2.18905,1.10564 2.63693,4.76513 0.74782,6.11061 1.79267,49.14712 1.8442,75.96187 0.0215,11.40832 0.33475,23.11801 0.695,26.02156 0.65049,5.24115 0.66939,5.26161 2.62762,2.8433 1.6915,-2.08889 2.37031,-2.25457 4.76595,-1.16303 2.52326,1.14969 3.20874,0.8475 7.08648,-3.12362 2.36114,-2.41807 5.21082,-4.39649 6.33255,-4.39649 2.02375,0 8.71745,-9.13845 8.71745,-11.90129 0,-0.75432 0.70579,-2.79984 1.56849,-4.54563 7.96206,-16.11299 8.35301,-16.62883 11.77977,-15.5412 2.60835,0.82785 5.61566,6.18212 7.89081,14.0488 5.16941,17.87461 10.07115,30.51687 12.38709,31.94821 0.60719,0.37513 3.55898,-1.61413 6.5596,-4.42087 6.22953,-5.82698 8.02688,-6.19499 11.62474,-2.38028 2.45838,2.60663 2.75961,2.65525 7.0529,1.1381 6.8139,-2.4078 10.65868,-2.03124 14.23407,1.3942 1.72959,1.65705 3.14468,2.45259 3.14468,1.76785 0,-2.02184 5.60747,-8.08739 9.18867,-9.93931 2.99021,-1.54631 3.58246,-1.53956 6.0369,0.0685 1.49682,0.98071 3.98741,3.78857 5.53468,6.23963 5.29643,8.39008 5.61609,7.24679 7.21799,-25.81614 0.64235,-13.25832 1.39192,-33.62084 1.66572,-45.25009 0.27366,-11.6293 0.77954,-21.42582 1.12386,-21.77014 0.34431,-0.34431 0.62599,-3.27567 0.62599,-6.51407 0,-7.28754 0.7773,-9.43515 3.41493,-9.43515 1.57721,0 2.18904,1.10562 2.6369,4.76518 0.74783,6.11057 1.79268,49.1471 1.8442,75.96181 0.0215,11.40831 0.33478,23.118 0.69501,26.02155 0.65049,5.24118 0.66941,5.26168 2.62765,2.84337 1.69149,-2.08896 2.37028,-2.25456 4.76591,-1.16307 2.52327,1.14968 3.20876,0.8475 7.08649,-3.12365 2.36114,-2.41804 5.21082,-4.39642 6.33255,-4.39642 2.02374,0 8.71747,-9.1385 8.71747,-11.90136 0,-0.75429 0.70579,-2.79984 1.56847,-4.54563 7.96205,-16.11292 8.35301,-16.6288 11.77979,-15.54118 2.60833,0.82788 5.61567,6.18218 7.89078,14.04885 5.16943,17.87461 10.07119,30.51687 12.38713,31.94821 0.60716,0.37513 3.55894,-1.61418 6.55959,-4.42094 3.00062,-2.80673 6.2659,-5.10312 7.2562,-5.10312 0.99021,0 2.96789,1.25903 4.39477,2.79784 l 2.5943,2.79785 4.17422,-2.23724 c 5.87555,-3.14909 10.66314,-2.89292 14.49221,0.77556 1.7296,1.657 3.14468,2.45254 3.14468,1.7678 0,-2.02184 5.60748,-8.08739 9.18864,-9.93931 2.99022,-1.54627 3.58246,-1.53956 6.03691,0.0685 1.49682,0.98076 3.9874,3.78857 5.53471,6.23963 5.29641,8.39007 5.61607,7.24683 7.21798,-25.81614 0.64235,-13.25832 1.39193,-33.62084 1.66574,-45.25009 0.27363,-11.6293 0.77954,-21.42583 1.12386,-21.77014 0.34431,-0.34431 0.62597,-3.27567 0.62597,-6.51408 0,-7.28753 0.7773,-9.43509 3.41492,-9.43509 1.5772,0 2.18904,1.10564 2.63693,4.76513 0.74782,6.11057 1.79265,49.1471 1.8442,75.96188 0.0215,11.40824 0.33475,23.11793 0.695,26.02148 0.65042,5.24123 0.66934,5.26168 2.62762,2.84337 1.69149,-2.08896 2.37029,-2.25457 4.76592,-1.16307 2.52329,1.14968 3.20876,0.84754 7.08649,-3.12365 2.36116,-2.418 5.21084,-4.39642 6.33257,-4.39642 2.02373,0 8.71745,-9.13845 8.71745,-11.90136 0,-0.75429 0.70578,-2.79977 1.56849,-4.54563 7.96198,-16.11292 8.35301,-16.62876 11.77977,-15.54118 2.60833,0.82788 5.61566,6.18218 7.89078,14.04885 5.16945,17.87461 10.07119,30.51687 12.38712,31.94821 0.60716,0.37513 3.55897,-1.61418 6.55958,-4.42091 6.22649,-5.82412 8.18869,-6.22285 11.55729,-2.34864 2.1803,2.50765 2.604,2.60814 4.7268,1.12121 3.8054,-2.66536 9.6798,-2.05435 13.264,1.3795 1.7296,1.657 3.1447,2.45254 3.1447,1.76785 0,-2.02185 5.6074,-8.08744 9.1886,-9.93931 2.9902,-1.54632 3.5825,-1.53959 6.0369,0.0685 1.4968,0.98072 3.9874,3.7885 5.5347,6.23956 5.2965,8.39015 5.6161,7.24686 7.218,-25.81614 0.6424,-13.25825 1.3919,-33.62079 1.6658,-45.25009 0.2736,-11.62925 0.7795,-21.42582 1.1238,-21.77014 0.3443,-0.34431 0.626,-3.27559 0.626,-6.51405 0,-7.28749 0.7773,-9.4351 3.4149,-9.4351 1.5773,0 2.189,1.10563 2.6369,4.76514 0.7478,6.11061 1.7927,49.1471 1.8442,75.96185 0.022,11.40832 0.3348,23.11801 0.695,26.02155 0.6505,5.24118 0.6694,5.26164 2.6277,2.8433 1.6914,-2.08889 2.3702,-2.25456 4.7659,-1.163 2.5232,1.14966 3.2087,0.8475 7.0865,-3.12364 2.3611,-2.41808 5.2108,-4.39648 6.3326,-4.39648 2.0237,0 8.7174,-9.13845 8.7174,-11.90131 0,-0.75429 0.7058,-2.79983 1.5684,-4.54563 7.9621,-16.11296 8.3531,-16.6288 11.7798,-15.5412 4.225,1.34098 6.8443,8.41199 6.745,18.20868 l -0.088,8.73404 -1.5329,-4.48484 c -0.8431,-2.46664 -2.0543,-6.51859 -2.6916,-9.00428 -0.6373,-2.48572 -1.8445,-5.45753 -2.6828,-6.60397 -1.3823,-1.89027 -1.9083,-1.12514 -5.6449,8.21087 -6.0284,15.06181 -11.0228,22.40577 -15.3009,22.49903 -0.9251,0.0215 -3.6799,2.09627 -6.1219,4.61354 -3.6167,3.7282 -4.9987,4.46519 -7.4529,3.97432 -3.4261,-0.68522 -3.6531,-0.0215 -5.019,14.69317 -0.4139,4.46056 -1.4453,9.00147 -2.2916,10.09088 -2.7596,3.55222 -4.8818,-1.02284 -5.0318,-10.8471 -0.071,-4.66125 -0.2465,-8.97958 -0.39,-9.59626 -0.1434,-0.61669 -0.3374,-13.18822 -0.4315,-27.93675 -0.094,-14.74858 -0.4495,-26.53713 -0.7895,-26.1968 -0.3401,0.34061 -0.8433,7.10966 -1.1176,15.0429 -0.6905,19.96892 -2.1679,33.67644 -3.8477,35.70055 -3.3676,4.0577 -10.6174,0.56728 -14.5001,-6.98108 -1.8934,-3.68068 -3.4246,-3.16577 -9.1697,3.08331 -2.8347,3.08338 -5.6984,5.60604 -6.364,5.60604 -0.6655,0 -2.7736,-1.31572 -4.6847,-2.92383 -3.46,-2.91138 -3.4984,-2.91615 -8.9861,-1.12121 -6.8391,2.23697 -6.2359,2.28407 -9.0195,-0.70376 l -2.335,-2.50637 -4.8749,5.30938 c -2.6812,2.92018 -5.46735,5.30944 -6.19137,5.30944 -2.6366,0 -5.74461,-2.43081 -8.3047,-6.49515 -2.55611,-4.05805 -9.60741,-23.20269 -11.86761,-32.22115 -0.62296,-2.48572 -1.81855,-5.45753 -2.6569,-6.60397 -1.3822,-1.89027 -1.90818,-1.12514 -5.64487,8.21087 -6.02837,15.06181 -11.02276,22.40577 -15.30092,22.49903 -0.92498,0.0215 -3.6798,2.09627 -6.12184,4.61354 -3.61673,3.7282 -4.99871,4.46519 -7.45295,3.97432 -3.42602,-0.68522 -3.65301,-0.0215 -5.01895,14.69317 -0.41392,4.46056 -1.44533,9.00147 -2.29166,10.09088 -2.7595,3.55222 -4.88181,-1.02284 -5.0317,-10.8471 -0.0711,-4.66125 -0.24654,-8.97958 -0.39,-9.59626 -0.14346,-0.61669 -0.33741,-13.18822 -0.43146,-27.93675 -0.094,-14.74858 -0.44953,-26.53713 -0.78959,-26.1968 -0.3406,0.34061 -0.8433,7.10966 -1.11758,15.0429 -0.69049,19.96892 -2.16786,33.67644 -3.84764,35.70055 -3.36764,4.0577 -10.61741,0.56728 -14.50017,-6.98108 -1.89331,-3.68068 -3.42462,-3.16577 -9.1697,3.08331 -2.83463,3.08338 -5.69839,5.60604 -6.36392,5.60604 -0.66549,0 -2.78207,-1.32278 -4.70349,-2.93952 l -3.49338,-2.93951 -7.04283,2.3789 c -8.60477,2.90658 -7.98079,2.9139 -10.81426,-0.12746 l -2.33505,-2.50637 -4.87486,5.3094 c -2.68124,2.92018 -5.46737,5.30945 -6.19139,5.30945 -2.6366,0 -5.74461,-2.43082 -8.3047,-6.49515 -2.55611,-4.05808 -9.60741,-23.20272 -11.86761,-32.22118 -0.62297,-2.48569 -1.81855,-5.45753 -2.6569,-6.60397 -1.3822,-1.89027 -1.90818,-1.12512 -5.64488,8.21087 -6.02837,15.06181 -11.02276,22.4058 -15.30091,22.49903 -0.92498,0.0215 -3.6798,2.09629 -6.12184,4.61354 -3.61671,3.7282 -4.99871,4.46519 -7.45294,3.97434 -3.42603,-0.68524 -3.65302,-0.0215 -5.01896,14.69315 -0.41392,4.46056 -1.44533,9.00147 -2.29166,10.09088 -2.7595,3.55224 -4.88181,-1.02284 -5.0317,-10.8471 -0.0711,-4.66126 -0.24655,-8.97955 -0.39,-9.59624 -0.14346,-0.61668 -0.33742,-13.18822 -0.43146,-27.93675 -0.094,-14.7486 -0.44953,-26.53713 -0.7896,-26.19675 -0.34059,0.34059 -0.8433,7.10966 -1.11758,15.04283 -0.69049,19.96899 -2.16785,33.67649 -3.84764,35.70055 -3.36764,4.05769 -10.61741,0.56732 -14.50017,-6.98106 -1.89331,-3.6807 -3.42461,-3.16577 -9.1697,3.08331 -2.83463,3.08336 -5.69839,5.60605 -6.36391,5.60605 -0.6655,0 -2.7152,-1.26648 -4.55482,-2.81445 -3.32847,-2.80074 -3.37948,-2.80628 -10.4572,-1.13777 -8.95662,2.1114 -8.28775,2.15966 -11.04195,-0.79661 l -2.33505,-2.50637 -4.87486,5.3094 c -2.68118,2.92018 -5.46732,5.30945 -6.19139,5.30945 -2.63655,0 -5.74461,-2.43082 -8.3047,-6.49515 -2.55611,-4.05808 -9.60741,-23.20272 -11.86761,-32.22118 -0.62296,-2.48569 -1.81855,-5.45753 -2.6569,-6.60397 -1.3822,-1.89027 -1.90818,-1.12512 -5.64488,8.21087 -6.02836,15.06181 -11.02276,22.4058 -15.30091,22.49903 -0.92498,0.0215 -3.6798,2.09629 -6.12184,4.61354 -3.61671,3.7282 -4.99871,4.46519 -7.45294,3.97434 -3.4066,-0.68135 -3.58943,-0.15419 -5.00254,14.43157 -0.77828,8.03276 -2.00031,11.77266 -3.84686,11.77266 -0.57326,0 -1.49882,-0.88295 -2.05686,-1.9621 z"
       id="wavePath" />
    <path
       d="m -0.78204285,98.754742 c 0,-1.628086 0.60269137,-1.80682 6.09751365,-1.808082 3.9949094,-8.88e-4 7.1877532,-0.54603 9.2591872,-1.580835 3.680813,-1.838775 4.519592,-4.002956 9.451145,-24.385651 3.531199,-14.594872 5.42723,-17.855039 12.167055,-20.92094 2.269771,-1.032482 7.175615,-2.287944 10.901871,-2.789931 3.726258,-0.501953 9.214022,-1.340102 12.195028,-1.862573 8.57913,-1.503537 17.478992,-1.707978 21.017951,-0.482766 4.311625,1.492749 5.199815,4.333143 5.957613,19.05236 0.622122,12.083844 1.451754,19.167041 3.271864,27.934487 l 1.045737,5.037248 h 16.641458 c 24.8789,0 24.08338,0.61131 29.69378,-22.818405 5.41189,-22.600683 7.19744,-24.491422 25.74874,-27.265239 5.06776,-0.757744 9.69391,-1.689063 10.28028,-2.069609 1.66052,-1.07755 17.89407,-1.068979 21.09922,0.01022 4.38137,1.476531 5.5045,5.252274 6.10543,20.525374 0.53337,13.555253 2.86534,28.010145 4.8369,29.981698 0.78516,0.785159 5.46697,1.207425 15.3391,1.38346 12.07089,0.215093 14.68473,0.01365 17.37066,-1.328389 3.68072,-1.84137 4.52009,-4.007328 9.45114,-24.387939 3.53121,-14.594873 5.42723,-17.85504 12.16705,-20.920939 2.26978,-1.032483 7.17563,-2.287946 10.90188,-2.789933 3.72626,-0.501954 9.21403,-1.3401 12.19503,-1.862573 8.57913,-1.503536 17.47899,-1.707978 21.01795,-0.482764 4.31162,1.492747 5.19981,4.333142 5.95761,19.052358 0.62212,12.083845 1.45176,19.167041 3.27186,27.934487 l 1.04574,5.037249 h 16.64146 c 24.8789,0 24.0834,0.611309 29.69383,-22.818406 5.41184,-22.600682 7.19743,-24.491422 25.74871,-27.265239 5.06778,-0.757743 9.69389,-1.689064 10.28028,-2.069608 1.66052,-1.077549 17.89406,-1.06898 21.09924,0.01022 4.38134,1.47653 5.50447,5.252272 6.1054,20.525371 0.53271,13.538868 2.86484,28.009635 4.83089,29.97569 0.78171,0.781677 5.59377,1.200495 15.79961,1.375027 12.47999,0.213387 15.14725,0.01708 17.82836,-1.322345 3.67073,-1.831777 4.51317,-4.006952 9.44231,-24.37954 3.53119,-14.594873 5.42721,-17.855039 12.16704,-20.920941 2.26978,-1.032482 7.17562,-2.287944 10.90186,-2.789931 3.72627,-0.501953 9.21401,-1.340101 12.19504,-1.862573 8.57912,-1.503537 17.47898,-1.707978 21.01794,-0.482764 4.31163,1.492747 5.19983,4.333141 5.9576,19.052358 0.62214,12.083845 1.45178,19.167041 3.27188,27.934487 l 1.04574,5.037248 h 16.64146 c 24.8789,0 24.08339,0.61131 29.69378,-22.818405 5.41189,-22.600683 7.19744,-24.491422 25.74873,-27.265239 5.06777,-0.757744 9.69392,-1.689063 10.2803,-2.069608 1.66053,-1.07755 17.89407,-1.06898 21.09919,0.01022 4.38139,1.476531 5.50452,5.252274 6.10545,20.525374 0.53678,13.641975 2.86877,28.016871 4.86815,30.008328 1.86404,1.856667 31.22095,1.086768 35.38853,-0.928076 3.68291,-1.78053 4.50847,-3.906165 9.45114,-24.334781 3.53117,-14.594837 5.42721,-17.855004 12.16704,-20.920905 2.26979,-1.032482 7.17562,-2.287978 10.90189,-2.789931 3.72624,-0.501954 9.21402,-1.340136 12.195,-1.862574 8.57914,-1.50357 17.47902,-1.707977 21.01795,-0.482765 4.31163,1.492715 5.19983,4.333142 5.95764,19.05236 0.6221,12.083811 1.45174,19.167041 3.27184,27.934453 l 1.04574,5.037282 h 16.64146 c 24.87891,0 24.0834,0.61131 29.69379,-22.818405 5.41189,-22.600717 7.19743,-24.491422 25.74873,-27.265239 5.06776,-0.757743 9.69392,-1.689064 10.2803,-2.069608 1.66053,-1.077585 17.89407,-1.06898 21.09922,0.01022 4.38136,1.476531 5.50448,5.252272 6.10542,20.525372 0.53678,13.642008 2.86876,28.016906 4.86814,30.008363 1.86404,1.856667 31.22097,1.086734 35.38854,-0.928111 3.68287,-1.780529 4.50844,-3.906164 9.45113,-24.334746 3.53122,-14.594871 5.42725,-17.855038 12.16702,-20.920906 2.26981,-1.032515 7.17564,-2.287977 10.90191,-2.789931 3.72624,-0.501986 9.21403,-1.340135 12.19501,-1.862573 8.57915,-1.50357 17.47901,-1.707977 21.01801,-0.482765 4.31163,1.492715 5.19977,4.333109 5.95757,19.05236 0.62214,12.083811 1.45175,19.16704 3.27189,27.934453 l 1.04572,5.037282 h 16.64147 c 24.8789,0 24.0834,0.611309 29.6938,-22.818439 5.4119,-22.600684 7.1974,-24.491388 25.7487,-27.265239 5.0678,-0.757744 9.6939,-1.689064 10.2804,-2.069574 1.6605,-1.077585 17.8939,-1.069014 21.0992,0.01022 4.3813,1.476531 5.5045,5.252272 6.1053,20.525372 0.5366,13.636888 2.8684,28.015369 4.8666,30.008363 0.7979,0.795675 4.1756,1.156724 10.8224,1.156724 9.3328,0 9.6726,0.06931 9.9514,2.032496 0.2872,2.022117 0.2261,2.032497 -11.9692,2.032497 h -12.2579 v -2.183061 c 0,-1.200665 -0.4583,-2.335847 -1.0184,-2.522568 -1.5725,-0.524146 -4.2214,-17.803315 -4.9327,-32.1749 -0.7245,-14.640418 -1.1208,-15.519637 -6.9859,-15.500792 -6.8552,0.02049 -34.9484,4.423892 -38.2586,5.994653 -4.2048,1.995316 -5.7425,5.513903 -9.8423,22.520211 -3.3361,13.838222 -4.9826,18.186079 -7.2111,19.04123 -0.7193,0.275865 -1.3078,1.002847 -1.3078,1.615214 0,2.578253 -4.6949,3.209945 -23.7551,3.196185 -10.53439,-0.0068 -19.59901,-0.312397 -20.14354,-0.67751 -1.42627,-0.956005 -4.78469,-23.356616 -5.46562,-36.456419 -0.85979,-16.538327 -0.0307,-15.567026 -12.75978,-14.970091 -13.56431,0.636164 -28.92426,2.846266 -32.87508,4.730279 -4.84425,2.310036 -6.69733,6.080281 -10.19362,20.739169 -3.5333,14.8142 -5.61683,21.228388 -6.89558,21.228388 -0.45577,0 -0.82866,0.609738 -0.82866,1.355019 0,0.745248 -0.37752,1.354987 -0.83884,1.354987 -0.46132,0 -1.42681,0.588024 -2.1455,1.306744 -1.01616,1.016128 -5.65081,1.448534 -20.84126,1.944546 l -19.53451,0.637803 V 97.60825 c 0,-1.276529 -0.45834,-2.473746 -1.01855,-2.660467 -1.57236,-0.524111 -4.22136,-17.803281 -4.9326,-32.1749 -0.72453,-14.640419 -1.12077,-15.519638 -6.9859,-15.500791 -6.85515,0.02049 -34.94837,4.423891 -38.25852,5.994687 -4.20477,1.995281 -5.74258,5.513902 -9.84233,22.520211 -3.33602,13.838187 -4.98263,18.186044 -7.21112,19.041194 -0.71927,0.275866 -1.30777,1.002881 -1.30777,1.615215 0,2.578253 -4.69491,3.209944 -23.75506,3.196185 -10.53435,-0.0068 -19.59896,-0.312397 -20.14352,-0.677509 -1.42632,-0.955971 -4.78468,-23.356583 -5.46567,-36.456421 -0.85972,-16.538325 -0.0308,-15.567026 -12.75978,-14.970056 -13.56423,0.636164 -28.92429,2.846232 -32.87508,4.730245 -4.84417,2.310036 -6.69733,6.080316 -10.19358,20.739169 -3.5333,14.814235 -5.61684,21.228387 -6.89562,21.228387 -0.45572,0 -0.82863,0.609774 -0.82863,1.355021 0,0.745246 -0.37747,1.354986 -0.83879,1.354986 -0.46136,0 -1.42686,0.588024 -2.14554,1.306743 -1.01613,1.016129 -5.65085,1.44857 -20.84126,1.944551 l -19.5345,0.6378 v -2.321017 c 0,-1.276527 -0.45836,-2.473709 -1.01856,-2.660465 -1.57237,-0.524112 -4.22137,-17.803281 -4.93261,-32.1749 -0.72451,-14.640384 -1.12077,-15.519603 -6.98588,-15.500791 -6.85517,0.02049 -34.94838,4.423925 -38.25853,5.994688 -4.2048,1.995281 -5.74258,5.513901 -9.84233,22.520209 -3.33603,13.838189 -4.98262,18.186079 -7.21113,19.041229 -0.7193,0.275866 -1.30777,1.002847 -1.30777,1.615181 0,2.578287 -4.69491,3.209976 -23.75505,3.196216 -10.53434,-0.007 -19.59897,-0.31239 -20.14357,-0.677507 -1.42626,-0.956004 -4.78463,-23.356617 -5.46563,-36.456454 -0.85972,-16.538326 -0.0308,-15.566992 -12.75977,-14.970056 -13.56427,0.636165 -28.92429,2.846267 -32.87509,4.730245 -4.84417,2.310035 -6.69732,6.080315 -10.19357,20.739203 -3.53331,14.8142 -5.61685,21.228387 -6.89562,21.228387 -0.45576,0 -0.82863,0.582358 -0.82863,1.294112 0,0.711788 -0.81298,1.552189 -1.80668,1.867557 -0.99367,0.31547 -1.80665,0.952522 -1.80665,1.41586 0,0.494343 -7.8394,0.842483 -18.97005,0.842483 h -18.97003 v -2.183061 c 0,-1.200699 -0.45836,-2.335845 -1.01856,-2.522601 -1.5724,-0.524112 -4.2214,-17.803281 -4.9326,-32.1749 -0.72453,-14.640384 -1.12078,-15.519603 -6.98589,-15.500791 -6.85521,0.02049 -34.94842,4.423925 -38.25857,5.994688 -4.20476,1.995281 -5.74255,5.513901 -9.84233,22.520209 -3.33603,13.838189 -4.98258,18.186079 -7.21113,19.041229 -0.71925,0.275866 -1.30776,1.002847 -1.30776,1.615181 0,2.578287 -4.69487,3.209976 -23.75507,3.196216 -10.53435,-0.007 -19.59895,-0.31239 -20.14353,-0.677507 -1.4263,-0.956004 -4.78465,-23.356617 -5.46565,-36.456454 -0.85973,-16.538326 -0.0317,-15.566992 -12.75977,-14.970056 -13.56426,0.636165 -28.92429,2.846267 -32.87509,4.730245 -4.84418,2.310035 -6.69732,6.080315 -10.19358,20.739203 -3.53332,14.8142 -5.61685,21.228387 -6.89562,21.228387 -0.45574,0 -0.82862,0.582358 -0.82862,1.294112 0,0.711788 -0.813,1.552189 -1.80668,1.867557 -0.99367,0.31547 -1.80666,0.952522 -1.80666,1.41586 0,0.493653 -7.66708,0.842483 -18.51838,0.842483 h -18.51838 v -2.183061 c 0,-1.200699 -0.45835,-2.335845 -1.01855,-2.522601 -1.57237,-0.524112 -4.22137,-17.803281 -4.9326,-32.1749 -0.72452,-14.640384 -1.12078,-15.519603 -6.98589,-15.500791 -6.85518,0.02049 -34.9484,4.423925 -38.25855,5.994688 -4.20477,1.995281 -5.74257,5.513901 -9.84234,22.520209 -3.33602,13.838189 -4.9826,18.186079 -7.21112,19.041229 -0.71927,0.275866 -1.30777,1.002847 -1.30777,1.615181 0,2.578287 -4.69489,3.209976 -23.75505,3.196216 -10.534354,-0.007 -19.59895,-0.31219 -20.143539,-0.677305 C 86.683364,98.909541 83.325005,76.508928 82.644022,63.409091 81.784293,46.870765 82.612271,47.842099 69.884241,48.439035 56.31999,49.0752 40.959959,51.285301 37.009165,53.16928 c -4.844187,2.310034 -6.697322,6.080315 -10.193593,20.739203 -3.533317,14.8142 -5.616834,21.228387 -6.895615,21.228387 -0.455742,0 -0.828623,0.582358 -0.828623,1.294112 0,0.711788 -0.813001,1.552188 -1.80667,1.867557 -0.993669,0.315469 -1.806671,0.952522 -1.806671,1.41586 0,0.463371 -3.658508,0.842481 -8.1300176,0.842481 -7.52779463,0 -8.13001825,-0.13383 -8.13001825,-1.806679 z"
       id="co2_wave_normal"/>
    <path 
       d="m 65.098209,101.41809 c -3.524693,-5.019186 -7.080337,-10.723526 -7.901413,-12.676326 -0.821085,-1.95276 -3.634616,-5.92113 -6.252299,-8.81863 -5.202059,-5.75802 -10.526033,-6.90772 -15.2927,-3.30241 -1.370002,1.0362 -4.546002,1.87718 -7.057774,1.86884 -3.669299,-0.0145 -5.76482,-1.16899 -10.662205,-5.88567 -3.352443,-3.22876 -6.095352,-6.86651 -6.095352,-8.08386 0,-1.21735 -1.154909,-3.45301 -2.5664644,-4.96816 -1.411557,-1.51508 -2.5664662,-3.09101 -2.5664662,-3.50199 0,-1.73907 -5.633374,-8.18488 -6.62022484,-7.57494 -0.5935395,0.36666 -1.07916631,0.0553 -1.07916631,-0.69205 0,-3.148 2.93072575,-0.87136 8.34366215,6.4816 3.1745396,4.31234 5.7718906,8.53301 5.7718906,9.37938 0,0.84633 2.393727,4.2475 5.319389,7.55822 5.811005,6.57574 10.234458,7.67373 16.495554,4.09457 1.764444,-1.00866 5.306338,-1.85436 7.870878,-1.87939 3.846932,-0.0388 5.481545,0.86079 9.342089,5.13399 2.573606,2.84865 6.121146,8.19011 7.88342,11.86986 3.580225,7.47581 10.812412,17.804586 12.970407,18.523936 1.811352,0.60378 8.444067,-7.93903 10.682082,-13.758306 0.950007,-2.47021 2.237287,-5.16323 2.860617,-5.98453 0.623318,-0.82125 2.51441,-5.72961 4.202412,-10.90748 5.277338,-16.18793 6.382384,-19.03847 7.380443,-19.03847 0.533089,0 0.969245,-0.77746 0.969245,-1.72767 0,-2.97428 3.936407,-9.77752 6.429287,-11.11167 5.00769,-2.68006 7.58217,-1.42484 13.46346,6.56435 3.17454,4.31228 5.77189,8.53301 5.77189,9.37934 0,0.84632 2.39372,4.24754 5.31939,7.55824 5.811,6.57576 10.23446,7.67375 16.49554,4.09458 1.76446,-1.00865 5.30635,-1.85435 7.87089,-1.87938 3.84692,-0.0388 5.48156,0.86079 9.34208,5.13393 2.57361,2.84871 6.12116,8.19012 7.88342,11.86992 3.58023,7.47581 10.81243,17.804576 12.97042,18.523936 1.81134,0.60377 8.44407,-7.939036 10.68208,-13.758326 0.95001,-2.4702 2.23728,-5.16326 2.86061,-5.98451 0.62333,-0.82131 2.51442,-5.72966 4.20242,-10.90748 5.27734,-16.18793 6.38239,-19.03847 7.38045,-19.03847 0.53308,0 0.96923,-0.77747 0.96923,-1.72773 0,-2.85724 3.89466,-9.75517 6.2065,-10.9924 4.58815,-2.45551 9.28083,8.7e-4 15.09809,7.90305 3.10381,4.2162 5.64327,8.35831 5.64327,9.20464 0,0.84632 2.39372,4.24754 5.3194,7.55824 5.81098,6.57576 10.23444,7.67375 16.49556,4.09458 1.76444,-1.00865 5.30634,-1.85435 7.87089,-1.87938 3.84693,-0.0388 5.48153,0.86079 9.34208,5.13393 2.57362,2.84871 6.12116,8.19012 7.88341,11.86992 3.58023,7.47581 10.81242,17.804576 12.97043,18.523936 1.81133,0.60377 8.44406,-7.939036 10.6821,-13.758326 0.94997,-2.4702 2.23726,-5.16326 2.86058,-5.98451 0.62333,-0.82131 2.51439,-5.72966 4.20243,-10.90748 5.27735,-16.18793 6.38238,-19.03847 7.38042,-19.03847 0.53311,0 0.96927,-0.77747 0.96927,-1.72773 0,-2.85724 3.89465,-9.75517 6.20646,-10.9924 4.58816,-2.45551 9.28083,8.7e-4 15.09809,7.90305 3.10381,4.2162 5.64332,8.35831 5.64332,9.20464 0,0.84632 2.39372,4.24754 5.3194,7.55824 5.81098,6.57576 10.23444,7.67375 16.4955,4.09458 1.76445,-1.00865 5.30635,-1.85435 7.8709,-1.87938 3.84693,-0.0388 5.48158,0.86079 9.34208,5.13393 2.57362,2.84871 6.12116,8.19012 7.88341,11.86992 3.58023,7.47581 10.81242,17.804576 12.97043,18.523936 1.81133,0.60377 8.44406,-7.939036 10.68209,-13.758326 0.94998,-2.4702 2.23727,-5.16326 2.86059,-5.98451 0.62333,-0.82131 2.51444,-5.72966 4.20244,-10.90748 5.27734,-16.18793 6.38237,-19.03847 7.38046,-19.03847 0.53305,0 0.96922,-0.77747 0.96922,-1.72773 0,-2.97442 3.93647,-9.77752 6.42961,-11.11181 3.916,-2.09578 8.31311,0.57153 13.9738,8.47656 2.89366,4.04098 5.26124,8.00921 5.26124,8.81828 0,0.80908 2.39373,4.1798 5.31939,7.4905 5.811,6.57576 10.23445,7.67375 16.49552,4.09458 1.76443,-1.00865 5.30635,-1.85435 7.87089,-1.87938 3.84694,-0.0388 5.48158,0.86079 9.34209,5.13393 2.57361,2.84871 6.12116,8.19012 7.88345,11.86992 3.58023,7.47581 10.81242,17.804576 12.97038,18.523936 1.81138,0.60377 8.44407,-7.939036 10.6821,-13.758326 0.95002,-2.4702 2.23727,-5.16326 2.86059,-5.98451 0.62337,-0.82131 2.51444,-5.72966 4.20243,-10.90748 5.27735,-16.18793 6.38237,-19.03847 7.38046,-19.03847 0.53306,0 0.96923,-0.77747 0.96923,-1.72773 0,-2.85724 3.89465,-9.75517 6.20651,-10.9924 4.58815,-2.45551 9.28083,8.7e-4 15.09807,7.90305 3.10382,4.2162 5.64328,8.35831 5.64328,9.20464 0,0.84632 2.39373,4.24754 5.3194,7.55824 5.81099,6.57576 10.23444,7.67375 16.49556,4.09458 1.76443,-1.00865 5.30635,-1.85435 7.87089,-1.87938 3.84689,-0.0388 5.48154,0.86079 9.34204,5.13393 2.57366,2.84871 6.1212,8.19012 7.88345,11.86992 3.58023,7.47581 10.81242,17.804576 12.97043,18.523936 1.81133,0.60377 8.44407,-7.939036 10.68205,-13.758326 0.95002,-2.4702 2.23731,-5.16326 2.86064,-5.98451 0.62332,-0.82131 2.51439,-5.72966 4.20238,-10.90748 5.27735,-16.18793 6.38242,-19.03847 7.38046,-19.03847 0.53306,0 0.96923,-0.77747 0.96923,-1.72773 0,-2.85724 3.89465,-9.75517 6.20651,-10.9924 4.58815,-2.45551 9.28083,8.7e-4 15.09807,7.90305 3.10382,4.2162 5.64328,8.35831 5.64328,9.20464 0,0.84632 2.39373,4.24754 5.3194,7.55824 5.81104,6.57576 10.23449,7.67375 16.49556,4.09458 1.76443,-1.00865 5.30635,-1.85435 7.87089,-1.87938 3.84693,-0.0388 5.48154,0.86079 9.34209,5.13393 2.57362,2.84871 6.12115,8.19012 7.8834,11.86992 3.58023,7.47581 10.81242,17.804576 12.97043,18.523936 1.81134,0.60377 8.44407,-7.939036 10.6821,-13.758326 0.94998,-2.4702 2.23726,-5.16326 2.86059,-5.98451 0.62332,-0.82131 2.51444,-5.72966 4.20243,-10.90748 5.27735,-16.18793 6.38237,-19.03847 7.38041,-19.03847 0.53311,0 0.96928,-0.77747 0.96928,-1.72773 0,-2.97442 3.93645,-9.77752 6.4296,-11.11181 3.916,-2.09578 8.31312,0.57153 13.97381,8.47656 2.89366,4.04098 5.26119,8.00921 5.26119,8.81828 0,0.80908 2.39372,4.1798 5.31939,7.4905 5.81105,6.57576 10.2345,7.67375 16.49557,4.09458 1.76443,-1.00865 5.30635,-1.85435 7.87088,-1.87938 3.84693,-0.0388 5.48153,0.86079 9.3421,5.13393 2.5736,2.84871 6.12114,8.19012 7.8834,11.86992 3.58023,7.47581 10.81241,17.804576 12.97043,18.523936 1.81133,0.60377 8.44406,-7.939036 10.6821,-13.758326 0.94996,-2.4702 2.23726,-5.16326 2.86058,-5.98451 0.62332,-0.82131 2.51445,-5.72966 4.20244,-10.90748 5.27735,-16.18793 6.38237,-19.03847 7.38041,-19.03847 0.53311,0 0.96926,-0.77747 0.96926,-1.72773 0,-2.85724 3.89466,-9.75517 6.20651,-10.9924 4.58812,-2.45551 9.28079,8.7e-4 15.09804,7.90305 3.10382,4.2162 5.64333,8.35831 5.64333,9.20464 0,0.84632 2.39373,4.24754 5.31939,7.55824 5.811,6.57576 10.23445,7.67375 16.49552,4.09458 1.76448,-1.00865 5.30635,-1.85435 7.87088,-1.87938 3.84693,-0.0388 5.48158,0.86079 9.3421,5.13393 2.5736,2.84871 6.12114,8.19012 7.88339,11.86992 3.58024,7.47581 10.81243,17.804576 12.97043,18.523936 1.81134,0.60377 8.44407,-7.939036 10.6821,-13.758326 0.95003,-2.4702 2.23727,-5.16326 2.86056,-5.98451 0.62339,-0.82131 2.51442,-5.72966 4.2025,-10.90748 5.27735,-16.18793 6.38229,-19.03847 7.38046,-19.03847 0.53302,0 0.96923,-0.77747 0.96923,-1.72773 0,-2.85724 3.89457,-9.75517 6.20647,-10.9924 4.5881,-2.45551 9.2808,8.7e-4 15.098,7.90305 3.1038,4.2162 5.6434,8.35831 5.6434,9.20464 0,0.84632 2.3936,4.24754 5.3193,7.55824 5.811,6.57576 10.2344,7.67375 16.4956,4.09458 1.7644,-1.00865 5.3063,-1.85435 7.8708,-1.87938 3.8469,-0.0388 5.4816,0.86079 9.3421,5.13393 2.5735,2.84871 6.1211,8.19012 7.8835,11.86992 3.5801,7.47581 10.8123,17.804576 12.9704,18.523936 1.8112,0.60377 8.444,-7.939036 10.682,-13.758326 0.95,-2.4702 2.2373,-5.16326 2.8607,-5.98451 0.6233,-0.82131 2.5143,-5.72966 4.2024,-10.90748 5.2772,-16.18793 6.3824,-19.03847 7.3803,-19.03847 0.5331,0 0.9692,-0.77747 0.9692,-1.72773 0,-2.96985 3.9349,-9.77665 6.4208,-11.10706 2.3554,-1.26056 6.4117,-0.53131 6.4117,1.15276 0,0.4816 -1.5881,0.85292 -3.529,0.82513 -3.1307,-0.0437 -4.063,1.03523 -8.2635,9.57363 -2.604,5.29335 -6.6203,15.39364 -8.9251,22.44517 -4.3424,13.28596 -9.3317,23.641616 -12.2467,25.418996 -0.9257,0.56439 -1.683,1.86367 -1.683,2.88726 0,1.08073 -1.2107,1.85236 -2.8873,1.84024 -2.112,-0.0145 -4.608,-2.47118 -9.2958,-9.14664 -3.5246,-5.019176 -7.0803,-10.723506 -7.9015,-12.676276 -0.821,-1.95281 -3.6346,-5.92118 -6.2522,-8.81862 -5.2021,-5.75808 -10.5261,-6.90777 -15.2927,-3.30243 -1.37,1.03621 -4.546,1.8772 -7.0578,1.86881 -3.6692,-0.0145 -5.7648,-1.16895 -10.6622,-5.88564 -3.3524,-3.22878 -6.0953,-6.86649 -6.0953,-8.08384 0,-1.21735 -1.1549,-3.45301 -2.5665,-4.96816 -1.4115,-1.51514 -2.5665,-3.09101 -2.5665,-3.502 0,-0.4108 -1.1707,-2.33077 -2.6016,-4.26617 -2.0408,-2.76043 -3.6314,-3.5099 -7.3786,-3.47697 -4.6571,0.0388 -4.8957,0.28325 -9.51149,9.66627 -2.60407,5.29335 -6.62042,15.39364 -8.92514,22.44517 -4.34237,13.28596 -9.33168,23.641616 -12.24674,25.418996 -0.92562,0.56439 -1.683,1.86367 -1.683,2.88726 0,1.08073 -1.21066,1.85236 -2.88726,1.84024 -2.11204,-0.0145 -4.60799,-2.47118 -9.29582,-9.14664 -3.5247,-5.019176 -7.08033,-10.723506 -7.90139,-12.676276 -0.82111,-1.95281 -3.63465,-5.92118 -6.25229,-8.81862 -5.20208,-5.75808 -10.52603,-6.90777 -15.29272,-3.30243 -1.36998,1.03621 -4.54601,1.8772 -7.05778,1.86881 -3.66927,-0.0145 -5.76483,-1.16895 -10.66221,-5.88564 -3.35243,-3.22878 -6.09536,-6.86649 -6.09536,-8.08384 0,-1.21735 -1.15488,-3.45301 -2.56643,-4.96816 -1.4116,-1.51514 -2.56648,-3.09101 -2.56648,-3.502 0,-0.4108 -1.17074,-2.33077 -2.60168,-4.26617 -2.04084,-2.76043 -3.63136,-3.5099 -7.37857,-3.47697 -4.65713,0.0388 -4.89565,0.28325 -9.51155,9.66627 -2.60407,5.29335 -6.62036,15.39364 -8.92509,22.44517 -4.34241,13.28596 -9.3317,23.641616 -12.24675,25.418996 -0.92568,0.56439 -1.68301,1.86367 -1.68301,2.88726 0,1.08073 -1.21066,1.85236 -2.88726,1.84024 -2.11204,-0.0145 -4.60804,-2.47118 -9.29582,-9.14664 -3.5247,-5.019176 -7.08034,-10.723506 -7.90139,-12.676276 -0.82111,-1.95281 -3.63465,-5.92118 -6.25235,-8.81862 -5.20202,-5.75808 -10.52602,-6.90777 -15.29266,-3.30243 -1.37003,1.03621 -4.54602,1.8772 -7.05778,1.86881 -3.66933,-0.0145 -5.76483,-1.16895 -10.66221,-5.88564 -3.35243,-3.22878 -6.09536,-6.86649 -6.09536,-8.08384 0,-1.21735 -1.15488,-3.45301 -2.56647,-4.96816 -1.41156,-1.51514 -2.56644,-3.09101 -2.56644,-3.502 0,-0.4108 -1.17137,-2.3316 -2.60304,-4.26805 -1.92018,-2.59718 -3.68751,-3.50928 -6.73701,-3.47693 -3.85552,0.0388 -4.45274,0.692 -8.86854,9.66811 -2.60407,5.29335 -6.62035,15.39364 -8.92508,22.44517 -4.34241,13.28596 -9.33171,23.641616 -12.24676,25.418996 -0.92568,0.56439 -1.683,1.86367 -1.683,2.88726 0,1.08073 -1.21067,1.85236 -2.88726,1.84024 -2.11203,-0.0145 -4.60805,-2.47118 -9.29583,-9.14664 -3.52469,-5.019176 -7.08033,-10.723506 -7.90139,-12.676276 -0.82111,-1.95281 -3.63465,-5.92118 -6.25234,-8.81862 -5.20203,-5.75808 -10.52603,-6.90777 -15.29267,-3.30243 -1.37003,1.03621 -4.546,1.8772 -7.05778,1.86881 -3.66932,-0.0145 -5.76482,-1.16895 -10.66221,-5.88564 -3.35243,-3.22878 -6.09535,-6.86649 -6.09535,-8.08384 0,-1.21735 -1.15488,-3.45301 -2.56648,-4.96816 -1.41154,-1.51514 -2.56644,-3.09101 -2.56644,-3.502 0,-0.4108 -1.17078,-2.33077 -2.60168,-4.26617 -2.04084,-2.76043 -3.6314,-3.5099 -7.37856,-3.47697 -4.65713,0.0388 -4.89566,0.28325 -9.51161,9.66627 -2.60402,5.29335 -6.6203,15.39364 -8.92508,22.44517 -4.3424,13.28596 -9.33171,23.641616 -12.24671,25.418996 -0.92568,0.56439 -1.683,1.86367 -1.683,2.88726 0,1.08073 -1.21072,1.85236 -2.88732,1.84024 -2.11198,-0.0145 -4.60799,-2.47118 -9.29577,-9.14664 -3.52469,-5.019176 -7.08034,-10.723506 -7.90144,-12.676276 -0.82106,-1.95281 -3.6346,-5.92118 -6.25229,-8.81862 -5.20203,-5.75808 -10.52603,-6.90777 -15.29267,-3.30243 -1.37003,1.03621 -4.54601,1.8772 -7.05778,1.86881 -3.66932,-0.0145 -5.76482,-1.16895 -10.66221,-5.88564 -3.35248,-3.22878 -6.09535,-6.86649 -6.09535,-8.08384 0,-1.21735 -1.15494,-3.45301 -2.56648,-4.96816 -1.41155,-1.51514 -2.56648,-3.09101 -2.56648,-3.502 0,-0.4108 -1.17074,-2.33077 -2.60165,-4.26617 -2.04083,-2.76043 -3.63139,-3.5099 -7.3786,-3.47697 -4.65708,0.0388 -4.89565,0.28325 -9.51156,9.66627 -2.60406,5.29335 -6.62035,15.39364 -8.92508,22.44517 -4.34241,13.28596 -9.33171,23.641616 -12.24676,25.418996 -0.92563,0.56439 -1.683,1.86367 -1.683,2.88726 0,1.08073 -1.21067,1.85236 -2.88727,1.84024 -2.11202,-0.0145 -4.60799,-2.47118 -9.29581,-9.14664 -3.52465,-5.019176 -7.08034,-10.723506 -7.9014,-12.676276 -0.82111,-1.95281 -3.6346,-5.92118 -6.25229,-8.81862 -5.20207,-5.75808 -10.52603,-6.90777 -15.29272,-3.30243 -1.36998,1.03621 -4.546,1.8772 -7.05778,1.86881 -3.66927,-0.0145 -5.76482,-1.16895 -10.66221,-5.88564 -3.35243,-3.22878 -6.09535,-6.86649 -6.09535,-8.08384 0,-1.21735 -1.15488,-3.45301 -2.56643,-4.96816 -1.41159,-1.51514 -2.56649,-3.09101 -2.56649,-3.502 0,-0.4108 -1.17137,-2.3316 -2.60304,-4.26805 -1.92016,-2.59718 -3.68751,-3.50928 -6.73695,-3.47693 -3.85556,0.0388 -4.45276,0.692 -8.86859,9.66811 -2.60406,5.29335 -6.62036,15.39364 -8.92508,22.44517 -4.34241,13.28596 -9.33172,23.641616 -12.24677,25.418996 -0.92562,0.56439 -1.683,1.86367 -1.683,2.88726 0,1.08073 -1.21066,1.85236 -2.88726,1.84024 -2.11203,-0.0145 -4.60799,-2.47118 -9.29582,-9.14664 -3.5247,-5.019176 -7.08033,-10.723506 -7.90139,-12.676276 -0.82111,-1.95281 -3.63465,-5.92118 -6.2523,-8.81862 -5.20207,-5.75808 -10.52602,-6.90777 -15.29271,-3.30243 -1.36998,1.03621 -4.54601,1.8772 -7.05779,1.86881 -3.66927,-0.0145 -5.76481,-1.16895 -10.66221,-5.88564 -3.35242,-3.22878 -6.09535,-6.86649 -6.09535,-8.08384 0,-1.21735 -1.15488,-3.45301 -2.56642,-4.96816 -1.4116,-1.51514 -2.56648,-3.09101 -2.56648,-3.502 0,-0.4108 -1.17075,-2.33077 -2.6017,-4.26617 -2.04083,-2.76043 -3.63134,-3.5099 -7.37856,-3.47697 -4.65712,0.0388 -4.89565,0.28325 -9.51155,9.66627 -2.60406,5.29335 -6.62036,15.39364 -8.92508,22.44517 -4.34246,13.28596 -9.33172,23.641616 -12.24677,25.418996 -0.92567,0.56439 -1.683,1.86367 -1.683,2.88726 0,1.08073 -1.21066,1.85236 -2.88726,1.84024 -2.11203,-0.0145 -4.60804,-2.47118 -9.29582,-9.14664 -3.5247,-5.019176 -7.08033,-10.723506 -7.9014,-12.676276 -0.8211,-1.95281 -3.63463,-5.92118 -6.25234,-8.81862 -5.20202,-5.75808 -10.52603,-6.90777 -15.29267,-3.30243 -1.37002,1.03621 -4.546,1.8772 -7.05777,1.86881 -3.66933,-0.0145 -5.76482,-1.16895 -10.66222,-5.88564 -3.35243,-3.22878 -6.09535,-6.86649 -6.09535,-8.08384 0,-1.21735 -1.15493,-3.45301 -2.56648,-4.96816 -1.41154,-1.51514 -2.56642,-3.09101 -2.56642,-3.502 0,-0.4108 -1.1708,-2.33077 -2.6017,-4.26617 -2.04083,-2.76043 -3.63138,-3.5099 -7.37858,-3.47697 -4.65711,0.0388 -4.89566,0.28325 -9.51156,9.66627 -2.60406,5.29335 -6.62035,15.39364 -8.92509,22.44517 -4.34242,13.28596 -9.33171,23.641616 -12.24675,25.418996 -0.92565,0.56439 -1.683,1.86367 -1.683,2.88726 0,1.08073 -1.21067,1.85236 -2.88727,1.84024 -2.11202,-0.0145 -4.60801,-2.47118 -9.29581,-9.14664 -3.52469,-5.019176 -7.08033,-10.723506 -7.90141,-12.676276 -0.82109,-1.95281 -3.63462,-5.92118 -6.25231,-8.81862 -5.20205,-5.75808 -10.52602,-6.90777 -15.2927,-3.30243 -1.36999,1.03621 -4.546,1.8772 -7.05776,1.86881 -3.66931,-0.0145 -5.76482,-1.16895 -10.66222,-5.88564 -3.35244,-3.22878 -6.09535,-6.86649 -6.09535,-8.08384 0,-1.21735 -1.1549,-3.45301 -2.56646,-4.96816 -1.41155,-1.51514 -2.56646,-3.09101 -2.56646,-3.502 0,-0.4108 -1.20241,-2.37359 -2.672,-4.36132 -2.2606,-3.0576 -3.2979,-3.49303 -6.73697,-2.82795 -3.53198,0.68308 -4.68576,2.04705 -8.79962,10.40303 -2.604062,5.28928 -6.62035,15.38627 -8.925082,22.43775 -4.342416,13.28598 -9.331715,23.641616 -12.246754,25.418996 -0.925656,0.56439 -1.683001,1.86372 -1.683001,2.88732 0,1.08067 -1.210674,1.8523 -2.887263,1.84023 -2.112029,-0.0145 -4.608022,-2.47122 -9.295811,-9.14663 z"
       id="pleth_wave" />
  </g>
</svg>
