<?xml version="1.0" encoding="UTF-8" standalone="no"?>
<!-- Created with Inkscape (http://www.inkscape.org/) -->

<svg
   xmlns:dc="http://purl.org/dc/elements/1.1/"
   xmlns:cc="http://creativecommons.org/ns#"
   xmlns:rdf="http://www.w3.org/1999/02/22-rdf-syntax-ns#"
   xmlns:svg="http://www.w3.org/2000/svg"
   xmlns="http://www.w3.org/2000/svg"
   xmlns:sodipodi="http://sodipodi.sourceforge.net/DTD/sodipodi-0.dtd"
   xmlns:inkscape="http://www.inkscape.org/namespaces/inkscape"
   version="1.1"
   id="svg2"
   width="122"
   height="84"
   viewBox="0 0 122 84"
   sodipodi:docname="adjustSize.svg"
   inkscape:version="0.92.2 (5c3e80d, 2017-08-06)">
  <metadata
     id="metadata8">
    <rdf:RDF>
      <cc:Work
         rdf:about="">
        <dc:format>image/svg+xml</dc:format>
        <dc:type
           rdf:resource="http://purl.org/dc/dcmitype/StillImage" />
        <dc:title></dc:title>
      </cc:Work>
    </rdf:RDF>
  </metadata>
  <defs
     id="defs6" />
  <sodipodi:namedview
     pagecolor="#ffffff"
     bordercolor="#666666"
     borderopacity="1"
     objecttolerance="10"
     gridtolerance="10"
     guidetolerance="10"
     inkscape:pageopacity="0"
     inkscape:pageshadow="2"
     inkscape:window-width="1327"
     inkscape:window-height="713"
     id="namedview4"
     showgrid="false"
     inkscape:zoom="2.8032787"
     inkscape:cx="61"
     inkscape:cy="42"
     inkscape:window-x="39"
     inkscape:window-y="27"
     inkscape:window-maximized="1"
     inkscape:current-layer="svg2" />
  <path
     style="fill:#ffffff;fill-opacity:1"
     d="m 51.356721,61.71345 c 0,-16.222222 -0.21929,-19 -1.5,-19 -1.21568,0 -1.5,1.611111 -1.5,8.5 0,6.888889 -0.28431,8.5 -1.5,8.5 -0.825,0 -1.5,0.675 -1.5,1.5 0,0.833333 -0.88889,1.5 -2,1.5 -1.11111,0 -1.999996,-0.666667 -1.999996,-1.5 0,-1 -1,-1.5 -3,-1.5 -2,0 -3,-0.5 -3,-1.5 0,-1.047619 -1.055556,-1.5 -3.5,-1.5 -2.833333,0 -3.5,-0.380952 -3.5,-2 0,-1.111111 -0.666667,-2 -1.5,-2 -0.825,0 -1.5,-0.675 -1.5,-1.5 0,-0.833333 -0.888889,-1.5 -2,-1.5 -1.333333,0 -2,-0.666667 -2,-2 0,-1.111111 -0.666667,-2 -1.5,-2 -0.833333,0 -1.5,0.888889 -1.5,2 0,1.333333 -0.666667,2 -2,2 -1.111111,0 -2,0.666667 -2,1.5 0,0.825 -0.675,1.5 -1.5,1.5 -0.833333,0 -1.5,0.888889 -1.5,2 0,1.619048 -0.666667,2 -3.4999998,2 -3.333333,0 -3.5,-0.166667 -3.5,-3.5 0,-2.833333 0.380952,-3.5 2,-3.5 1.333333,0 2,-0.666667 2,-2 0,-1.111111 0.666667,-2 1.5,-2 0.8249998,0 1.4999998,-0.675 1.4999998,-1.5 0,-0.825 0.675,-1.5 1.5,-1.5 0.825,0 1.5,-0.675 1.5,-1.5 0,-1.047619 1.055556,-1.5 3.5,-1.5 2.444444,0 3.5,0.452381 3.5,1.5 0,0.833333 0.888889,1.5 2,1.5 1.111111,0 2,0.666667 2,1.5 0,0.825 0.675,1.5 1.5,1.5 0.833333,0 1.5,0.888889 1.5,2 0,1.111111 0.666667,2 1.5,2 0.825,0 1.5,0.675 1.5,1.5 0,1.047619 1.055556,1.5 3.5,1.5 2.833333,0 3.5,0.380952 3.5,2 0,1.111111 0.666667,2 1.5,2 1.25,0 1.5,-2 1.5,-12 0,-11.333333 0.111111,-12 1.999996,-12 1.88889,0 2,-0.666667 2,-12 0,-10 0.25,-11.9999999 1.5,-11.9999999 0.83334,0 1.5,-0.888889 1.5,-2 0,-1.111111 0.66667,-2 1.5,-2 1.21569,0 1.5,1.611111 1.5,8.4999999 0,7.833333 0.15687,8.5 2,8.5 1.85186,0 2,0.666667 2,9 0,7.333333 0.27778,9 1.5,9 1.27451,0 1.5,2.555556 1.5,17 0,14.444444 0.22549,17 1.5,17 1.15152,0 1.5,-1.277778 1.5,-5.5 0,-4.833333 0.24243,-5.5 2,-5.5 1.11111,0 2,-0.666667 2,-1.5 0,-1.047619 1.05556,-1.5 3.5,-1.5 2.44445,0 3.5,-0.452381 3.5,-1.5 0,-0.825 0.675,-1.5 1.5,-1.5 0.83334,0 1.5,-0.888889 1.5,-2 0,-1.619048 0.66667,-2 3.5,-2 2.44445,0 3.5,-0.452381 3.5,-1.5 0,-0.825 0.675,-1.5 1.5,-1.5 0.83334,0 1.5,-0.888889 1.5,-2 0,-1.111111 0.66667,-2 1.5,-2 0.825,0 1.5,-0.675 1.5,-1.5 0,-1.133333 1.22223,-1.5 5,-1.5 3.77778,0 5,0.366667 5,1.5 0,0.833333 0.88889,1.5 1.999999,1.5 1.33333,0 2,0.666667 2,2 0,1.111111 0.66667,2 1.5,2 0.825,0 1.5,0.675 1.5,1.5 0,1.047619 1.05556,1.5 3.5,1.5 2.83333,0 3.5,0.380952 3.5,2 0,1.619048 0.66667,2 3.5,2 2.44444,0 3.5,0.452381 3.5,1.5 0,1.190476 -1.44444,1.5 -7,1.5 -5.55556,0 -7,-0.309524 -7,-1.5 0,-1.047619 -1.05556,-1.5 -3.5,-1.5 -3.333329,0 -3.499999,-0.166667 -3.499999,-3.5 0,-2.444444 -0.45238,-3.5 -1.5,-3.5 -0.83333,0 -1.5,-0.888889 -1.5,-2 0,-1.111111 -0.66666,-2 -1.5,-2 -1.04762,0 -1.5,1.055556 -1.5,3.5 0,2.833333 -0.38095,3.5 -2,3.5 -1.33333,0 -2,0.666667 -2,2 0,1.555556 -0.66666,2 -3,2 -2,0 -3,0.5 -3,1.5 0,1.047619 -1.05555,1.5 -3.5,1.5 -3.33333,0 -3.5,0.166667 -3.5,3.5 0,3.333333 -0.16666,3.5 -3.5,3.5 -3.33333,0 -3.5,0.166667 -3.5,3.5 0,2.444444 -0.45238,3.5 -1.5,3.5 -0.825,0 -1.5,0.675 -1.5,1.5 0,0.833333 -0.88889,1.5 -2,1.5 -1.33333,0 -2,0.666667 -2,1.999996 0,1.73334 -0.66666,2 -5,2 h -5 z m 21,-17.5 c 0,-0.833333 -0.88889,-1.5 -2,-1.5 -1.11111,0 -2,-0.666667 -2,-1.5 0,-0.825 -0.675,-1.5 -1.5,-1.5 -0.83333,0 -1.5,-0.888889 -1.5,-2 0,-1.619048 0.66667,-2 3.5,-2 h 3.5 v -10 -10 h -3.5 c -2.83333,0 -3.5,-0.380952 -3.5,-2 0,-1.111111 0.66667,-2 1.5,-2 0.825,0 1.5,-0.675 1.5,-1.5 0,-0.8333329 0.88889,-1.4999999 2,-1.4999999 1.33334,0 2,-0.666666 2,-2 0,-1.555555 0.66667,-2 3,-2 2.33334,0 3,0.444445 3,2 0,1.333334 0.66667,2 2,2 1.11111,0 2,0.666667 2,1.4999999 0,0.825 0.675,1.5 1.5,1.5 0.83334,0 1.5,0.888889 1.5,2 0,1.619048 -0.66666,2 -3.5,2 h -3.5 v 10 10 h 3.5 c 2.83334,0 3.5,0.380952 3.5,2 0,1.111111 -0.66666,2 -1.5,2 -0.825,0 -1.5,0.675 -1.5,1.5 0,0.833333 -0.88889,1.5 -2,1.5 -1.11111,0 -2,0.666667 -2,1.5 0,1 -1,1.5 -3,1.5 -2,0 -3,-0.5 -3,-1.5 z"
     id="path817"
     inkscape:connector-curvature="0" />
</svg>
