<?xml version="1.0" encoding="UTF-8" standalone="no"?>
<!-- Created with Inkscape (http://www.inkscape.org/) -->

<svg
   xmlns:dc="http://purl.org/dc/elements/1.1/"
   xmlns:cc="http://creativecommons.org/ns#"
   xmlns:rdf="http://www.w3.org/1999/02/22-rdf-syntax-ns#"
   xmlns:svg="http://www.w3.org/2000/svg"
   xmlns="http://www.w3.org/2000/svg"
   xmlns:sodipodi="http://sodipodi.sourceforge.net/DTD/sodipodi-0.dtd"
   xmlns:inkscape="http://www.inkscape.org/namespaces/inkscape"
   version="1.1"
   id="svg2"
   width="113"
   height="78"
   viewBox="0 0 113 78"
   sodipodi:docname="admitDischarge.svg"
   inkscape:version="0.92.2 (5c3e80d, 2017-08-06)">
  <metadata
     id="metadata8">
    <rdf:RDF>
      <cc:Work
         rdf:about="">
        <dc:format>image/svg+xml</dc:format>
        <dc:type
           rdf:resource="http://purl.org/dc/dcmitype/StillImage" />
        <dc:title></dc:title>
      </cc:Work>
    </rdf:RDF>
  </metadata>
  <defs
     id="defs6" />
  <sodipodi:namedview
     pagecolor="#ffffff"
     bordercolor="#666666"
     borderopacity="1"
     objecttolerance="10"
     gridtolerance="10"
     guidetolerance="10"
     inkscape:pageopacity="0"
     inkscape:pageshadow="2"
     inkscape:window-width="1327"
     inkscape:window-height="713"
     id="namedview4"
     showgrid="false"
     inkscape:zoom="3.025641"
     inkscape:cx="56.5"
     inkscape:cy="39"
     inkscape:window-x="39"
     inkscape:window-y="27"
     inkscape:window-maximized="1"
     inkscape:current-layer="svg2" />
  <path
     style="fill:#ffffff;fill-opacity:1"
     d="m 29.974576,50.991526 c 0,-20.666667 -0.208333,-24 -1.5,-24 -1.25641,0 -1.5,2.111111 -1.5,13 v 13 h -3 -3 v -14.5 c 0,-12.222222 0.235632,-14.5 1.5,-14.5 0.825,0 1.5,-0.675 1.5,-1.5 0,-1.270833 2.444444,-1.5 16,-1.5 13.555552,0 16.000002,0.229167 16.000002,1.5 0,0.825 0.675,1.5 1.5,1.5 1.26437,0 1.5,2.277778 1.5,14.5 v 14.5 h -3 -3 v -13 c 0,-10.888889 -0.243592,-13 -1.500002,-13 -1.291667,0 -1.5,3.333333 -1.5,24 v 24 h -3.5 -3.5 v -12.5 -12.5 h -3 -3 v 12.5 12.5 h -3.5 -3.5 z m 54.000002,12.5 c 0,-0.825 -0.675,-1.5 -1.5,-1.5 -0.825,0 -1.5,-0.675 -1.5,-1.5 0,-0.825 0.675,-1.5 1.5,-1.5 0.825,0 1.5,-0.675 1.5,-1.5 0,-1.047619 1.05555,-1.5 3.5,-1.5 2.44444,0 3.5,0.452381 3.5,1.5 0,0.825 0.675,1.5 1.5,1.5 0.825,0 1.5,0.675 1.5,1.5 0,0.825 -0.675,1.5 -1.5,1.5 -0.825,0 -1.5,0.675 -1.5,1.5 0,1.047619 -1.05556,1.5 -3.5,1.5 -2.44445,0 -3.5,-0.452381 -3.5,-1.5 z m -3,-15.5 c 0,-1.111111 -0.66667,-2 -1.5,-2 -1.11111,0 -1.5,-1.166667 -1.5,-4.5 0,-3.333333 0.38889,-4.5 1.5,-4.5 0.825,0 1.5,-0.675 1.5,-1.5 0,-0.825 0.675,-1.5 1.5,-1.5 0.83333,0 1.5,-0.888889 1.5,-2 0,-1.333333 0.66667,-2 2,-2 1.11111,0 2,-0.666667 2,-1.5 0,-0.825 0.675,-1.5 1.5,-1.5 1.11111,0 1.5,-1.166667 1.5,-4.5 0,-4.47619 -0.0185,-4.5 -3.5,-4.5 -3.22222,0 -3.5,0.238095 -3.5,3 0,2.666667 -0.33333,3 -3,3 -2.66667,0 -3,-0.333333 -3,-3 0,-2 0.5,-3 1.5,-3 0.825,0 1.5,-0.675 1.5,-1.5 0,-1.179487 1.38889,-1.5 6.5,-1.5 5.11111,0 6.5,0.320513 6.5,1.5 0,0.825 0.675,1.5 1.5,1.5 1.11111,0 1.5,1.166667 1.5,4.5 0,3.333333 -0.38889,4.5 -1.5,4.5 -0.825,0 -1.5,0.675 -1.5,1.5 0,0.825 -0.675,1.5 -1.5,1.5 -0.83333,0 -1.5,0.888889 -1.5,2 0,1.111111 -0.66667,2 -1.5,2 -0.825,0 -1.5,0.675 -1.5,1.5 0,0.833333 -0.88889,1.5 -2,1.5 -1.70371,0 -2,0.666667 -2,4.5 0,4.47619 0.0185,4.5 3.5,4.5 3.22222,0 3.5,-0.238095 3.5,-3 0,-2.666667 0.33333,-3 3,-3 2.66667,0 3,0.333333 3,3 0,2 -0.5,3 -1.5,3 -0.83333,0 -1.5,0.888889 -1.5,2 0,1.794872 -0.66667,2 -6.5,2 -5.83333,0 -6.5,-0.205128 -6.5,-2 z m -47.000002,-31.5 c 0,-0.833333 -0.888889,-1.5 -2,-1.5 -1.619048,0 -2,-0.666667 -2,-3.5 0,-2.8333341 0.380952,-3.5000001 2,-3.5000001 1.111111,0 2,-0.666667 2,-1.5 0,-1.166667 1.333333,-1.5000005 6,-1.5000005 4.666667,0 6,0.3333335 6,1.5000005 0,0.833333 0.888889,1.5 2,1.5 1.619048,0 2,0.666666 2,3.5000001 0,2.833333 -0.380952,3.5 -2,3.5 -1.111111,0 -2,0.666667 -2,1.5 0,1.166667 -1.333333,1.5 -6,1.5 -4.666667,0 -6,-0.333333 -6,-1.5 z"
     id="path817"
     inkscape:connector-curvature="0" />
</svg>
