<?xml version="1.0" encoding="UTF-8" standalone="no"?>
<svg
   xmlns:dc="http://purl.org/dc/elements/1.1/"
   xmlns:cc="http://creativecommons.org/ns#"
   xmlns:rdf="http://www.w3.org/1999/02/22-rdf-syntax-ns#"
   xmlns:svg="http://www.w3.org/2000/svg"
   xmlns="http://www.w3.org/2000/svg"
   xmlns:sodipodi="http://sodipodi.sourceforge.net/DTD/sodipodi-0.dtd"
   xmlns:inkscape="http://www.inkscape.org/namespaces/inkscape"
   viewBox="0 0 114 78"
   height="78"
   width="114"
   id="svg2"
   version="1.1"
   sodipodi:docname="alarmsOff.svg"
   inkscape:version="0.92.2 (5c3e80d, 2017-08-06)">
  <sodipodi:namedview
     pagecolor="#ffffff"
     bordercolor="#666666"
     borderopacity="1"
     objecttolerance="10"
     gridtolerance="10"
     guidetolerance="10"
     inkscape:pageopacity="0"
     inkscape:pageshadow="2"
     inkscape:window-width="1327"
     inkscape:window-height="713"
     id="namedview6"
     showgrid="false"
     inkscape:zoom="3"
     inkscape:cx="18.166667"
     inkscape:cy="39"
     inkscape:window-x="39"
     inkscape:window-y="27"
     inkscape:window-maximized="1"
     inkscape:current-layer="svg2" />
  <metadata
     id="metadata8">
    <rdf:RDF>
      <cc:Work
         rdf:about="">
        <dc:format>image/svg+xml</dc:format>
        <dc:type
           rdf:resource="http://purl.org/dc/dcmitype/StillImage" />
        <dc:title />
      </cc:Work>
    </rdf:RDF>
  </metadata>
  <defs
     id="defs6" />
  <path
     style="fill:#ffffff;fill-opacity:1"
     d="m 21,70.333334 c 0,-1.111111 0.666667,-2 1.5,-2 1,0 1.5,-1 1.5,-3 0,-2 0.5,-3 1.5,-3 1,0 1.5,-1 1.5,-3 0,-2 0.5,-3 1.5,-3 1,0 1.5,-1 1.5,-3 0,-2 0.5,-3 1.5,-3 1.047619,0 1.5,-1.055556 1.5,-3.5 0,-2.833333 0.380952,-3.5 2,-3.5 1.555556,0 2,-0.666667 2,-3 0,-2 0.5,-3 1.5,-3 1.047619,0 1.5,-1.055556 1.5,-3.5 0,-2.444444 0.452381,-3.5 1.5,-3.5 1,0 1.5,-1 1.5,-3 0,-2 0.5,-3 1.5,-3 1,0 1.5,-1 1.5,-3 0,-2 0.5,-3 1.5,-3 1.047619,0 1.5,-1.055556 1.5,-3.5 0,-2.444444 0.452381,-3.5 1.5,-3.5 0.825,0 1.5,-0.675 1.5,-1.5000003 0,-0.825 0.675,-1.5 1.5,-1.5 0.825,0 1.5,0.675 1.5,1.5 0,0.8250003 0.675,1.5000003 1.5,1.5000003 1.047619,0 1.5,1.055556 1.5,3.5 0,2.833333 0.380952,3.5 2,3.5 1.555556,0 2,0.666667 2,3 0,2 0.5,3 1.5,3 1,0 1.5,1 1.5,3 0,2 0.5,3 1.499997,3 1.04762,0 1.5,1.055556 1.5,3.5 0,2.444444 0.45238,3.5 1.5,3.5 1,0 1.5,1 1.5,3 0,2 0.5,3 1.5,3 1.04762,0 1.5,1.055556 1.5,3.5 0,2.444444 0.45238,3.5 1.5,3.5 1,0 1.5,1 1.5,3 0,2 0.5,3 1.5,3 1,0 1.5,1 1.5,3 0,2.333333 0.44445,3 2,3 1.55556,0 2,0.666667 2,3 0,2 0.5,3 1.5,3 0.83334,0 1.5,0.888889 1.5,2 0,1.959596 -0.66666,2 -32.999997,2 -32.333333,0 -33,-0.0404 -33,-2 z m 55.999997,-6.5 c 0,-0.825 -0.675,-1.5 -1.5,-1.5 -1,0 -1.5,-1 -1.5,-3 0,-2 -0.5,-3 -1.5,-3 -1,0 -1.5,-1 -1.5,-3 0,-2 -0.5,-3 -1.5,-3 -1.04762,0 -1.5,-1.055556 -1.5,-3.5 0,-2.444444 -0.45238,-3.5 -1.5,-3.5 -0.999997,0 -1.499997,-1 -1.499997,-3 0,-2 -0.5,-3 -1.5,-3 -1.047619,0 -1.5,-1.055556 -1.5,-3.5 0,-2.833333 -0.380952,-3.5 -2,-3.5 -1.555556,0 -2,-0.666667 -2,-3 0,-2 -0.5,-3 -1.5,-3 -1,0 -1.5,-1 -1.5,-3 0,-2 -0.5,-3 -1.5,-3 -1,0 -1.5,1 -1.5,3 0,2 -0.5,3 -1.5,3 -1,0 -1.5,1 -1.5,3 0,2 -0.5,3 -1.5,3 -1.047619,0 -1.5,1.055556 -1.5,3.5 0,2.444444 -0.452381,3.5 -1.5,3.5 -1,0 -1.5,1 -1.5,3 0,2 -0.5,3 -1.5,3 -1.047619,0 -1.5,1.055556 -1.5,3.5 0,2.444444 -0.452381,3.5 -1.5,3.5 -1,0 -1.5,1 -1.5,3 0,2.333333 -0.444444,3 -2,3 -1.555556,0 -2,0.666667 -2,3 0,2 -0.5,3 -1.5,3 -0.825,0 -1.5,0.675 -1.5,1.5 0,1.29078 3.277778,1.5 23.5,1.5 20.222227,0 23.499997,-0.20922 23.499997,-1.5 z m 7,-21.5 c 0,-7.333333 -0.16666,-8 -2,-8 -1.33333,0 -2,-0.666667 -2,-2 0,-1.111111 -0.66666,-2 -1.5,-2 -1,0 -1.5,-1 -1.5,-3 0,-2 -0.5,-3 -1.5,-3 -0.825,0 -1.5,-0.675 -1.5,-1.5 0,-0.825 -0.675,-1.5 -1.5,-1.5 -1,0 -1.5,-1 -1.5,-3 0,-2.666667 0.33334,-3 3,-3 2,0 3,0.5 3,1.5 0,0.825 0.675,1.5 1.5,1.5 0.825,0 1.5,0.675 1.5,1.5 0,0.833333 0.88889,1.5 2,1.5 1.11111,0 2,0.666667 2,1.5 0,0.825 0.675,1.5 1.5,1.5 1,0 1.5,1 1.5,3 0,2 0.5,3 1.5,3 1.20834,0 1.5,1.555556 1.5,8 0,6.444444 -0.29166,8 -1.5,8 -0.83333,0 -1.5,0.888889 -1.5,2 0,1.111111 -0.66666,2 -1.5,2 -1.20833,0 -1.5,-1.555556 -1.5,-8 z"
     id="path816"
     inkscape:connector-curvature="0" />
</svg>
