<?xml version="1.0" encoding="UTF-8" standalone="no"?>
<svg
   xmlns:dc="http://purl.org/dc/elements/1.1/"
   xmlns:cc="http://creativecommons.org/ns#"
   xmlns:rdf="http://www.w3.org/1999/02/22-rdf-syntax-ns#"
   xmlns:svg="http://www.w3.org/2000/svg"
   xmlns="http://www.w3.org/2000/svg"
   xmlns:xlink="http://www.w3.org/1999/xlink"
   xmlns:sodipodi="http://sodipodi.sourceforge.net/DTD/sodipodi-0.dtd"
   xmlns:inkscape="http://www.inkscape.org/namespaces/inkscape"
   width="100%"
   height="100%"
   viewBox="0 0 26.458333 13.229167"
   version="1.1"
   id="svg818"
   sodipodi:docname="alarmVol0.svg"
   inkscape:version="0.92.2 (5c3e80d, 2017-08-06)">
  <metadata
     id="metadata13">
    <rdf:RDF>
      <cc:Work
         rdf:about="">
        <dc:format>image/svg+xml</dc:format>
        <dc:type
           rdf:resource="http://purl.org/dc/dcmitype/StillImage" />
        <dc:title />
      </cc:Work>
    </rdf:RDF>
  </metadata>
  <defs
     id="defs11">
    <linearGradient
       inkscape:collect="always"
       id="linearGradient4555">
      <stop
         style="stop-color:#ffffff;stop-opacity:1;"
         offset="0"
         id="stop4551" />
      <stop
         style="stop-color:#ffffff;stop-opacity:0;"
         offset="1"
         id="stop4553" />
    </linearGradient>
    <linearGradient
       inkscape:collect="always"
       xlink:href="#linearGradient4555"
       id="linearGradient4557"
       x1="0.82222965"
       y1="288.21213"
       x2="8.613229"
       y2="288.21213"
       gradientUnits="userSpaceOnUse" />
  </defs>
  <sodipodi:namedview
     pagecolor="#ffffff"
     bordercolor="#666666"
     borderopacity="1"
     objecttolerance="10"
     gridtolerance="10"
     guidetolerance="10"
     inkscape:pageopacity="0"
     inkscape:pageshadow="2"
     inkscape:window-width="1327"
     inkscape:window-height="713"
     id="namedview9"
     showgrid="false"
     inkscape:zoom="12.925984"
     inkscape:cx="21.155582"
     inkscape:cy="6.4731036"
     inkscape:window-x="39"
     inkscape:window-y="27"
     inkscape:window-maximized="1"
     inkscape:current-layer="layer1" />
  <g
     transform="matrix(0.5,0,0,0.5,1.2378167,1.4699074)"
     id="g6"
     style="stroke:#ffffff;stroke-opacity:1;fill:none;fill-opacity:0.93292683">
    <path
       d="M 12.972933,10.091502 C 11.764779,9.0466955 10.646741,7.5725903 10.646741,3.892195 c 0,-2.1314186 -1.7340747,-3.86543519 -3.8655522,-3.86543519 -2.1317703,0 -3.86608,1.73401659 -3.86608,3.86543519 0,3.6837373 -1.1176273,5.1563762 -2.32683638,6.200304 -0.33525298,0.291983 -0.5275632,0.712487 -0.5275632,1.153743 0,0.242851 0.19688344,0.439735 0.43973371,0.439735 H 4.6735159 c 0.2035675,0.976971 1.0710742,1.71332 2.1074385,1.71332 1.0363644,0 1.9039297,-0.73629 2.1074385,-1.71332 h 4.1730731 c 0.24285,0 0.439734,-0.196884 0.439734,-0.439735 0,-0.444833 -0.19278,-0.865981 -0.528267,-1.15474 z m -6.1919786,2.428326 c -0.5476152,0 -1.0155504,-0.347624 -1.1949618,-0.833851 H 7.9759161 C 7.7965047,12.172204 7.3285695,12.519828 6.7809544,12.519828 Z M 1.1133731,10.806509 c 0.016006,-0.01736 0.033068,-0.03389 0.051068,-0.04954 1.8435396,-1.5916079 2.6300766,-3.6446373 2.6300766,-6.864778 0,-1.6464803 1.3398392,-2.98596782 2.9866128,-2.98596782 1.6465389,0 2.9860851,1.33948752 2.9860851,2.98596782 0,3.2172092 0.7866544,5.2701785 2.6311314,6.865181 0.018,0.01554 0.03506,0.0319 0.05113,0.04913 H 1.1133731 Z"
       id="path2"
       style="stroke:#ffffff;stroke-width:0.89999998;stroke-opacity:1;fill:none;fill-opacity:0.93292683"
       inkscape:connector-curvature="0" />
  </g>
  <g
     id="layer1"
     transform="translate(0,-283.77082)"
     style="stroke:#110000;stroke-opacity:1">
    <path
       style="fill:none;fill-opacity:0.93292685;stroke:#ffffff;stroke-width:0.85080844px;stroke-opacity:1"
       d="m 0.31054608,296.30264 25.58507092,-11.7495 -0.09237,11.92229 z"
       id="path1367"
       inkscape:connector-curvature="0" />
    <text
       xml:space="preserve"
       style="font-style:normal;font-weight:normal;font-size:14.03092384px;line-height:1.25;font-family:sans-serif;letter-spacing:0px;word-spacing:0px;fill:#ffffff;fill-opacity:1;stroke:#ffffff;stroke-width:0.3507731;stroke-opacity:1;"
       x="0.59340501"
       y="292.04871"
       id="text4549"><tspan
         sodipodi:role="line"
         id="tspan4547"
         x="0.59340501"
         y="292.04871"
         style="stroke-width:0.3507731;stroke:#ffffff;stroke-opacity:1;fill:#ffffff;fill-opacity:1;">x</tspan></text>
  </g>
</svg>
