<?xml version="1.0" encoding="UTF-8" standalone="no"?>
<svg
   xmlns:dc="http://purl.org/dc/elements/1.1/"
   xmlns:cc="http://creativecommons.org/ns#"
   xmlns:rdf="http://www.w3.org/1999/02/22-rdf-syntax-ns#"
   xmlns:svg="http://www.w3.org/2000/svg"
   xmlns="http://www.w3.org/2000/svg"
   xmlns:sodipodi="http://sodipodi.sourceforge.net/DTD/sodipodi-0.dtd"
   xmlns:inkscape="http://www.inkscape.org/namespaces/inkscape"
   width="100%"
   height="100%"
   viewBox="0 0 26.458333 13.229167"
   version="1.1"
   id="svg818"
   sodipodi:docname="alarmVol1.svg"
   inkscape:version="0.92.2 (5c3e80d, 2017-08-06)">
  <metadata
     id="metadata4608">
    <rdf:RDF>
      <cc:Work
         rdf:about="">
        <dc:format>image/svg+xml</dc:format>
        <dc:type
           rdf:resource="http://purl.org/dc/dcmitype/StillImage" />
      </cc:Work>
    </rdf:RDF>
  </metadata>
  <defs
     id="defs4606" />
  <sodipodi:namedview
     pagecolor="#ffffff"
     bordercolor="#666666"
     borderopacity="1"
     objecttolerance="10"
     gridtolerance="10"
     guidetolerance="10"
     inkscape:pageopacity="0"
     inkscape:pageshadow="2"
     inkscape:window-width="1327"
     inkscape:window-height="713"
     id="namedview4604"
     showgrid="false"
     inkscape:zoom="12.925984"
     inkscape:cx="13.229166"
     inkscape:cy="6.6145835"
     inkscape:window-x="39"
     inkscape:window-y="27"
     inkscape:window-maximized="1"
     inkscape:current-layer="svg818" />
  <g
     id="layer1"
     transform="translate(0,-283.77082)"
     style="stroke:#fffffd;stroke-opacity:1">
    <path
       style="fill:none;stroke:#fffffd;stroke-width:0.9px;stroke-opacity:1"
       d="M 0.09449405,296.811 26.269345,283.95981 26.174851,296.99999 Z"
       id="path1367" />
    <path
       style="fill:#ffffff;stroke:#fffffd;stroke-width:0.26458332px;stroke-linecap:butt;stroke-linejoin:miter;stroke-opacity:1;fill-opacity:0.96341461"
       d="m 0.09449405,296.811 12.26672095,-6.09185 -0.06682,6.1472 z"
       id="path1369" />
  </g>
  <g
     transform="matrix(0.5,0,0,0.5,0.92836256,1.6246345)"
     id="g4601"
     style="stroke:#fffffd;stroke-opacity:1">
    <path
       d="M 12.972933,10.091502 C 11.764779,9.0466955 10.646741,7.5725903 10.646741,3.892195 c 0,-2.1314186 -1.7340747,-3.86543519 -3.8655522,-3.86543519 -2.1317703,0 -3.86608,1.73401659 -3.86608,3.86543519 0,3.6837373 -1.1176273,5.1563762 -2.32683638,6.200304 -0.33525298,0.291983 -0.5275632,0.712487 -0.5275632,1.153743 0,0.242851 0.19688344,0.439735 0.43973371,0.439735 H 4.6735159 c 0.2035675,0.976971 1.0710742,1.71332 2.1074385,1.71332 1.0363644,0 1.9039297,-0.73629 2.1074385,-1.71332 h 4.1730731 c 0.24285,0 0.439734,-0.196884 0.439734,-0.439735 0,-0.444833 -0.19278,-0.865981 -0.528267,-1.15474 z m -6.1919786,2.428326 c -0.5476152,0 -1.0155504,-0.347624 -1.1949618,-0.833851 H 7.9759161 C 7.7965047,12.172204 7.3285695,12.519828 6.7809544,12.519828 Z M 1.1133731,10.806509 c 0.016006,-0.01736 0.033068,-0.03389 0.051068,-0.04954 1.8435396,-1.5916079 2.6300766,-3.6446373 2.6300766,-6.864778 0,-1.6464803 1.3398392,-2.98596782 2.9866128,-2.98596782 1.6465389,0 2.9860851,1.33948752 2.9860851,2.98596782 0,3.2172092 0.7866544,5.2701785 2.6311314,6.865181 0.018,0.01554 0.03506,0.0319 0.05113,0.04913 H 1.1133731 Z"
       id="path2"
       style="stroke:#fffffd;stroke-width:0.89999998;stroke-opacity:1"
       inkscape:connector-curvature="0" />
  </g>
</svg>
