<?xml version="1.0" encoding="UTF-8" standalone="no"?>
<!-- Created with Inkscape (http://www.inkscape.org/) -->

<svg
   xmlns:dc="http://purl.org/dc/elements/1.1/"
   xmlns:cc="http://creativecommons.org/ns#"
   xmlns:rdf="http://www.w3.org/1999/02/22-rdf-syntax-ns#"
   xmlns:svg="http://www.w3.org/2000/svg"
   xmlns="http://www.w3.org/2000/svg"
   xmlns:sodipodi="http://sodipodi.sourceforge.net/DTD/sodipodi-0.dtd"
   xmlns:inkscape="http://www.inkscape.org/namespaces/inkscape"
   version="1.1"
   id="svg2"
   width="207"
   height="102"
   viewBox="0 0 207 102"
   sodipodi:docname="measurementSelection.svg"
   inkscape:version="0.92.2 (5c3e80d, 2017-08-06)">
  <metadata
     id="metadata8">
    <rdf:RDF>
      <cc:Work
         rdf:about="">
        <dc:format>image/svg+xml</dc:format>
        <dc:type
           rdf:resource="http://purl.org/dc/dcmitype/StillImage" />
        <dc:title />
      </cc:Work>
    </rdf:RDF>
  </metadata>
  <defs
     id="defs6" />
  <sodipodi:namedview
     pagecolor="#ffffff"
     bordercolor="#666666"
     borderopacity="1"
     objecttolerance="10"
     gridtolerance="10"
     guidetolerance="10"
     inkscape:pageopacity="0"
     inkscape:pageshadow="2"
     inkscape:window-width="1327"
     inkscape:window-height="713"
     id="namedview4"
     showgrid="false"
     inkscape:zoom="1.6521739"
     inkscape:cx="1.2105263"
     inkscape:cy="51"
     inkscape:window-x="39"
     inkscape:window-y="27"
     inkscape:window-maximized="1"
     inkscape:current-layer="svg2" />
  <path
     style="fill:#ffffff;fill-opacity:1;stroke-width:0.93799472"
     d="m 44.016763,69.620273 c 0,-0.802368 -0.61064,-1.458852 -1.356976,-1.458852 -0.746337,0 -1.356976,-0.656483 -1.356976,-1.458852 0,-0.810471 -0.804133,-1.458853 -1.8093,-1.458853 -1.740375,0 -1.809301,-0.648382 -1.809301,-17.019943 0,-16.371562 0.06893,-17.019944 1.809301,-17.019944 1.005167,0 1.8093,-0.648382 1.8093,-1.458853 0,-0.802369 0.610639,-1.458851 1.356976,-1.458851 0.746336,0 1.356976,-0.656484 1.356976,-1.458853 0,-1.281563 7.036168,-1.458852 57.897617,-1.458852 h 57.89763 v 2.724951 c 0,2.447478 0.32242,2.734784 3.16627,2.82145 3.51264,0.10704 3.89599,-0.381773 1.67109,-2.13079 -2.05484,-1.615348 -0.76182,-3.415611 2.45323,-3.415611 h 2.66056 v 20.910216 c 0,19.613462 -0.1122,21.030844 -1.8093,22.855353 -1.77356,1.90672 -3.0155,1.945136 -62.87319,1.945136 -53.675929,0 -61.063907,-0.176501 -61.063907,-1.458852 z m 11.308129,-21.3965 V 31.690113 H 49.89699 44.469088 l -0.250099,15.522052 c -0.137554,8.537126 -0.04071,16.108686 0.21522,16.825683 0.332318,0.93103 1.955238,1.220175 5.678001,1.011618 l 5.212682,-0.292033 z m -7.055154,13.487479 c -0.348907,-0.3751 -0.634375,-1.922019 -0.634375,-3.437611 0,-2.309101 0.375754,-2.755607 2.318943,-2.755607 2.070239,0 2.288541,0.338143 2.035464,3.152882 -0.27034,3.006743 -2.247908,4.622986 -3.720032,3.040336 z M 69.346971,48.223773 V 31.203829 h -5.880226 -5.880228 v 17.019944 17.019943 h 5.880228 5.880226 z m -7.237202,10.765892 c 0,-3.077575 0.263216,-3.471631 2.318943,-3.471631 2.071293,0 2.288669,0.337559 2.035463,3.160847 -0.217272,2.422619 -0.758872,3.233429 -2.318943,3.471631 -1.784688,0.272494 -2.035463,-0.116932 -2.035463,-3.160847 z M 83.821377,48.179336 v -17.06438 l -6.10639,0.287579 -6.10639,0.287578 -0.250098,15.522052 c -0.137555,8.537126 -0.04855,16.086687 0.197771,16.776802 0.302469,0.847398 2.366074,1.254749 6.356486,1.254749 h 5.908621 z M 75.145545,60.98911 c -1.084168,-3.037419 0.01281,-4.984792 2.807994,-4.984792 2.398634,0 2.701561,0.327163 2.701561,2.917705 0,2.461453 -0.389829,2.965915 -2.492932,3.225979 -1.590906,0.196731 -2.68242,-0.222591 -3.016623,-1.158892 z M 98.295781,48.179336 v -17.06438 l -6.106389,0.287579 -6.10639,0.287578 -0.250098,15.522052 c -0.137555,8.537126 -0.04855,16.086687 0.19777,16.776802 0.30247,0.847398 2.366076,1.254749 6.356488,1.254749 h 5.908619 z m -9.046502,10.742687 c 0,-2.982545 0.28001,-3.403989 2.261625,-3.403989 1.981615,0 2.261626,0.421444 2.261626,3.403989 0,2.982545 -0.280011,3.403989 -2.261626,3.403989 -1.981615,0 -2.261625,-0.421444 -2.261625,-3.403989 z m 22.163931,-10.69825 v -16.53366 l -5.65406,-0.289553 -5.65407,-0.289543 v 17.112756 17.112765 l 5.65407,-0.289553 5.65406,-0.289552 z m -7.05515,13.487479 c -0.3489,-0.3751 -0.63437,-1.95246 -0.63437,-3.505253 0,-2.371521 0.32568,-2.773522 2.03546,-2.512465 1.59191,0.243065 2.03546,0.943683 2.03546,3.215175 0,2.803496 -1.95368,4.396747 -3.43655,2.802543 z M 125.4353,48.223773 V 31.203829 h -5.88024 -5.88022 v 17.019944 17.019943 h 5.88022 5.88024 z m -7.23721,10.69825 c 0,-3.114066 0.24455,-3.501936 2.03547,-3.228489 1.59428,0.243424 2.03546,0.943187 2.03546,3.228489 0,2.285302 -0.44118,2.985065 -2.03546,3.228489 -1.79092,0.273447 -2.03547,-0.114423 -2.03547,-3.228489 z M 139.9097,48.223773 V 31.203829 h -6.33255 -6.33255 v 17.019944 17.019943 h 6.33255 6.33255 z m -8.4434,13.453856 c -0.33171,-0.356602 -0.6031,-1.888396 -0.6031,-3.403988 0,-2.413408 0.33703,-2.755607 2.71395,-2.755607 2.49855,0 2.71395,0.27016 2.71395,3.403989 0,2.917705 -0.30155,3.403989 -2.11085,3.403989 -1.16097,0 -2.38225,-0.29177 -2.71395,-0.648383 z M 154.38411,48.223773 V 31.203829 h -6.33256 -6.33254 v 17.019944 17.019943 h 6.33254 6.33256 z m -9.0465,10.765892 c 0,-3.077575 0.26321,-3.471631 2.31893,-3.471631 2.0713,0 2.28867,0.337559 2.03547,3.160847 -0.21727,2.422619 -0.75888,3.233429 -2.31894,3.471631 -1.78469,0.272494 -2.03546,-0.116932 -2.03546,-3.160847 z m 18.79775,-7.118761 0.25241,-12.88653 h -2.7402 -2.74021 v 12.48129 c 0,6.864717 0.28856,12.791527 0.64126,13.170703 0.35269,0.379165 1.4722,0.561522 2.48779,0.405231 1.73784,-0.267438 1.86138,-1.042623 2.09895,-13.170694 z"
     id="path817"
     inkscape:connector-curvature="0" />
</svg>
