<?xml version="1.0" encoding="UTF-8" standalone="no"?>
<!-- Created with Inkscape (http://www.inkscape.org/) -->

<svg
   xmlns:dc="http://purl.org/dc/elements/1.1/"
   xmlns:cc="http://creativecommons.org/ns#"
   xmlns:rdf="http://www.w3.org/1999/02/22-rdf-syntax-ns#"
   xmlns:svg="http://www.w3.org/2000/svg"
   xmlns="http://www.w3.org/2000/svg"
   xmlns:sodipodi="http://sodipodi.sourceforge.net/DTD/sodipodi-0.dtd"
   xmlns:inkscape="http://www.inkscape.org/namespaces/inkscape"
   version="1.1"
   id="svg2"
   width="114"
   height="78"
   viewBox="0 0 114 78"
   sodipodi:docname="monitorStandby.svg"
   inkscape:version="0.92.2 (5c3e80d, 2017-08-06)">
  <metadata
     id="metadata8">
    <rdf:RDF>
      <cc:Work
         rdf:about="">
        <dc:format>image/svg+xml</dc:format>
        <dc:type
           rdf:resource="http://purl.org/dc/dcmitype/StillImage" />
        <dc:title></dc:title>
      </cc:Work>
    </rdf:RDF>
  </metadata>
  <defs
     id="defs6" />
  <sodipodi:namedview
     pagecolor="#ffffff"
     bordercolor="#666666"
     borderopacity="1"
     objecttolerance="10"
     gridtolerance="10"
     guidetolerance="10"
     inkscape:pageopacity="0"
     inkscape:pageshadow="2"
     inkscape:window-width="1327"
     inkscape:window-height="713"
     id="namedview4"
     showgrid="false"
     inkscape:zoom="3"
     inkscape:cx="57"
     inkscape:cy="39"
     inkscape:window-x="39"
     inkscape:window-y="27"
     inkscape:window-maximized="1"
     inkscape:current-layer="svg2" />
  <path
     style="fill:#ffffff;fill-opacity:1"
     d="M 48,69 C 48,67.444444 47.333333,67 45,67 43,67 42,66.5 42,65.5 42,64.675 41.325,64 40.5,64 39.675,64 39,63.325 39,62.5 39,61.675 38.325,61 37.5,61 36.675,61 36,60.325 36,59.5 36,58.666667 35.111111,58 34,58 32.888889,58 32,57.333333 32,56.5 32,55.675 31.325,55 30.5,55 29.5,55 29,54 29,52 29,50 28.5,49 27.5,49 26.291667,49 26,47.444444 26,41 c 0,-6.444444 0.291667,-8 1.5,-8 1.047619,0 1.5,-1.055556 1.5,-3.5 0,-2.444444 0.452381,-3.5 1.5,-3.5 0.825,0 1.5,-0.675 1.5,-1.5 0,-0.833333 0.888889,-1.5 2,-1.5 1.111111,0 2,-0.666667 2,-1.5 0,-0.825 0.675,-1.5 1.5,-1.5 0.825,0 1.5,-0.675 1.5,-1.5 0,-0.825 0.675,-1.5 1.5,-1.5 0.825,0 1.5,-0.675 1.5,-1.5 0,-1 1,-1.5 3,-1.5 2.666667,0 3,0.333333 3,3 0,2.666667 -0.333333,3 -3,3 -2,0 -3,0.5 -3,1.5 0,0.825 -0.675,1.5 -1.5,1.5 -1,0 -1.5,1 -1.5,3 0,2 -0.5,3 -1.5,3 -0.833333,0 -1.5,0.888889 -1.5,2 0,1.333333 -0.666667,2 -2,2 -1.859649,0 -2,0.666667 -2,9.5 0,8.833333 0.140351,9.5 2,9.5 1.111111,0 2,0.666667 2,1.5 0,0.825 0.675,1.5 1.5,1.5 0.825,0 1.5,0.675 1.5,1.5 0,0.825 0.675,1.5 1.5,1.5 0.825,0 1.5,0.675 1.5,1.5 0,1 1,1.5 3,1.5 2,0 3,0.5 3,1.5 0,1.22807 1.722222,1.5 9.499997,1.5 7.77778,0 9.5,-0.27193 9.5,-1.5 0,-1.047619 1.05556,-1.5 3.5,-1.5 2.44445,0 3.5,-0.452381 3.5,-1.5 0,-0.825 0.675,-1.5 1.5,-1.5 0.825,0 1.5,-0.675 1.5,-1.5 0,-0.825 0.675,-1.5 1.5,-1.5 0.825,0 1.5,-0.675 1.5,-1.5 0,-0.825 0.675,-1.5 1.5,-1.5 1.22807,0 1.5,-1.722222 1.5,-9.5 0,-7.777778 -0.27193,-9.5 -1.5,-9.5 -1.04762,0 -1.5,-1.055556 -1.5,-3.5 0,-2.444444 -0.45238,-3.5 -1.5,-3.5 -0.825,0 -1.5,-0.675 -1.5,-1.5 0,-0.825 -0.675,-1.5 -1.5,-1.5 -0.825,0 -1.5,-0.675 -1.5,-1.5 0,-1.047619 -1.05555,-1.5 -3.5,-1.5 -3.22222,0 -3.5,-0.238095 -3.5,-3 0,-2.761905 0.27778,-3 3.5,-3 2.44445,0 3.5,0.452381 3.5,1.5 0,1 1,1.5 3,1.5 2,0 3,0.5 3,1.5 0,0.825 0.675,1.5 1.5,1.5 1,0 1.5,1 1.5,3 0,2 0.5,3 1.5,3 1.04762,0 1.5,1.055556 1.5,3.5 0,2.833333 0.38096,3.5 2,3.5 1.83334,0 2,0.666667 2,8 0,7.333333 -0.16666,8 -2,8 -1.55555,0 -2,0.666667 -2,3 0,2 -0.5,3 -1.5,3 -1,0 -1.5,1 -1.5,3 0,2 -0.5,3 -1.5,3 -0.825,0 -1.5,0.675 -1.5,1.5 0,1 -1,1.5 -3,1.5 -2,0 -3,0.5 -3,1.5 0,1.047619 -1.05555,1.5 -3.5,1.5 -2.83333,0 -3.5,0.380952 -3.5,2 0,1.859649 -0.66666,2 -9.5,2 C 48.666667,71 48,70.859649 48,69 Z M 54.999997,21.5 V 7 h 3 3 V 21.5 36 h -3 -3 z"
     id="path817"
     inkscape:connector-curvature="0" />
</svg>
