<?xml version="1.0" encoding="UTF-8" standalone="no"?>
<!-- Created with Inkscape (http://www.inkscape.org/) -->

<svg
   xmlns:dc="http://purl.org/dc/elements/1.1/"
   xmlns:cc="http://creativecommons.org/ns#"
   xmlns:rdf="http://www.w3.org/1999/02/22-rdf-syntax-ns#"
   xmlns:svg="http://www.w3.org/2000/svg"
   xmlns="http://www.w3.org/2000/svg"
   xmlns:sodipodi="http://sodipodi.sourceforge.net/DTD/sodipodi-0.dtd"
   xmlns:inkscape="http://www.inkscape.org/namespaces/inkscape"
   version="1.1"
   id="svg2"
   width="123"
   height="84"
   viewBox="0 0 123 84"
   sodipodi:docname="recordings.svg"
   inkscape:version="0.92.2 (5c3e80d, 2017-08-06)">
  <metadata
     id="metadata8">
    <rdf:RDF>
      <cc:Work
         rdf:about="">
        <dc:format>image/svg+xml</dc:format>
        <dc:type
           rdf:resource="http://purl.org/dc/dcmitype/StillImage" />
        <dc:title></dc:title>
      </cc:Work>
    </rdf:RDF>
  </metadata>
  <defs
     id="defs6" />
  <sodipodi:namedview
     pagecolor="#ffffff"
     bordercolor="#666666"
     borderopacity="1"
     objecttolerance="10"
     gridtolerance="10"
     guidetolerance="10"
     inkscape:pageopacity="0"
     inkscape:pageshadow="2"
     inkscape:window-width="1327"
     inkscape:window-height="713"
     id="namedview4"
     showgrid="false"
     inkscape:zoom="2.7804878"
     inkscape:cx="61.5"
     inkscape:cy="42"
     inkscape:window-x="39"
     inkscape:window-y="27"
     inkscape:window-maximized="1"
     inkscape:current-layer="svg2" />
  <path
     style="fill:#ffffff;fill-opacity:1"
     d="m 53.517544,73.578948 v -3.5 h 5 c 3.777778,0 5,-0.366667 5,-1.5 0,-0.825 -0.675,-1.5 -1.5,-1.5 -0.825,0 -1.5,-0.675 -1.5,-1.5 0,-1.047619 -1.055556,-1.5 -3.5,-1.5 -2.833333,0 -3.5,-0.380952 -3.5,-2 0,-1.555556 -0.666667,-2 -3,-2 -2.933333,0 -3,-0.111111 -3,-5 0,-3.777778 0.366667,-5 1.5,-5 0.825,0 1.5,-0.675 1.5,-1.5 0,-1.047619 1.055556,-1.5 3.5,-1.5 2.833333,0 3.5,-0.380952 3.5,-2 0,-1.733333 0.666667,-2 5,-2 3.777778,0 5,-0.366667 5,-1.5 0,-0.825 0.675,-1.5 1.5,-1.5 0.825001,0 1.500001,-0.675 1.500001,-1.5 0,-0.825 -0.675,-1.5 -1.500001,-1.5 -0.833333,0 -1.5,-0.888889 -1.5,-2 0,-1.843137 -0.666667,-2 -8.5,-2 -6.888889,0 -8.5,-0.284314 -8.5,-1.5 0,-1.133333 -1.222222,-1.5 -5,-1.5 -3.777778,0 -5,-0.366667 -5,-1.5 0,-0.825 -0.675,-1.5 -1.5,-1.5 -1.047619,0 -1.5,-1.055556 -1.5,-3.5 0,-2.444444 0.452381,-3.5 1.5,-3.5 0.833333,0 1.5,-0.888889 1.5,-2 0,-1.111111 0.666667,-2 1.5,-2 0.825,0 1.5,-0.675 1.5,-1.5 0,-1.190476 1.444444,-1.5 7,-1.5 5.555556,0 7,-0.309524 7,-1.5 0,-1.25926 2.166667,-1.5 13.500001,-1.5 h 13.5 v 3 3 h -12 c -11.333334,0 -12.000001,0.111111 -12.000001,2 0,1.843137 -0.666667,2 -8.5,2 -6.888889,0 -8.5,0.284314 -8.5,1.5 0,1.047619 1.055556,1.5 3.5,1.5 2.833333,0 3.5,0.380952 3.5,2 0,1.843137 0.666667,2 8.5,2 6.888889,0 8.5,0.284314 8.5,1.5 0,1.047619 1.055556,1.5 3.500001,1.5 2.44444,0 3.5,0.452381 3.5,1.5 0,1 1,1.5 3,1.5 2.7619,0 3,0.277778 3,3.5 0,2.444444 -0.45238,3.5 -1.5,3.5 -0.825,0 -1.5,0.675 -1.5,1.5 0,0.825 -0.675,1.5 -1.5,1.5 -0.83333,0 -1.5,0.888889 -1.5,2 0,1.757576 -0.66667,2 -5.500001,2 -4.222222,0 -5.5,0.348485 -5.5,1.5 0,1.133333 -1.222222,1.5 -5,1.5 h -5 v 3.5 c 0,3.333333 0.166667,3.5 3.5,3.5 2.444444,0 3.5,0.452381 3.5,1.5 0,1.047619 1.055556,1.5 3.5,1.5 2.833333,0 3.5,0.380952 3.5,2 0,1.111111 0.666667,2 1.5,2 1.000001,0 1.500001,1 1.500001,3 0,2 -0.5,3 -1.500001,3 -0.833333,0 -1.5,0.888889 -1.5,2 0,1.333333 -0.666667,2 -2,2 -1.111111,0 -2,0.666667 -2,1.5 0,1.133333 -1.222222,1.5 -5,1.5 h -5 z"
     id="path817"
     inkscape:connector-curvature="0" />
</svg>
