<?xml version="1.0" encoding="UTF-8" standalone="no"?>
<!-- Created with Inkscape (http://www.inkscape.org/) -->

<svg
   xmlns:dc="http://purl.org/dc/elements/1.1/"
   xmlns:cc="http://creativecommons.org/ns#"
   xmlns:rdf="http://www.w3.org/1999/02/22-rdf-syntax-ns#"
   xmlns:svg="http://www.w3.org/2000/svg"
   xmlns="http://www.w3.org/2000/svg"
   xmlns:sodipodi="http://sodipodi.sourceforge.net/DTD/sodipodi-0.dtd"
   xmlns:inkscape="http://www.inkscape.org/namespaces/inkscape"
   version="1.1"
   id="svg2"
   width="176"
   height="120"
   viewBox="0 0 176 120"
   sodipodi:docname="remoteApplications.svg"
   inkscape:version="0.92.2 (5c3e80d, 2017-08-06)">
  <metadata
     id="metadata8">
    <rdf:RDF>
      <cc:Work
         rdf:about="">
        <dc:format>image/svg+xml</dc:format>
        <dc:type
           rdf:resource="http://purl.org/dc/dcmitype/StillImage" />
        <dc:title />
      </cc:Work>
    </rdf:RDF>
  </metadata>
  <defs
     id="defs6" />
  <sodipodi:namedview
     pagecolor="#ffffff"
     bordercolor="#666666"
     borderopacity="1"
     objecttolerance="10"
     gridtolerance="10"
     guidetolerance="10"
     inkscape:pageopacity="0"
     inkscape:pageshadow="2"
     inkscape:window-width="1327"
     inkscape:window-height="713"
     id="namedview4"
     showgrid="false"
     inkscape:zoom="1.9431818"
     inkscape:cx="6.6900577"
     inkscape:cy="59.999999"
     inkscape:window-x="39"
     inkscape:window-y="27"
     inkscape:window-maximized="1"
     inkscape:current-layer="svg2" />
  <path
     style="fill:#ffffff;fill-opacity:1;stroke-width:0.59649122"
     d="M 75.426896,84.497076 V 83.005848 H 69.461988 63.497076 V 81.51462 c 0,-1.391811 -0.198828,-1.491228 -2.982456,-1.491228 h -2.982456 v -2.684211 c 0,-2.286547 -0.176735,-2.68421 -1.192983,-2.68421 -1.129354,0 -1.192982,-0.397663 -1.192982,-7.45614 V 59.74269 h -4.473684 c -4.374268,0 -4.473683,-0.03317 -4.473683,-1.491227 0,-1.45809 0.09941,-1.491228 4.473683,-1.491228 h 4.473684 v -5.964913 c 0,-5.567251 0.07953,-5.964912 1.192982,-5.964912 1.016248,0 1.192983,-0.397661 1.192983,-2.68421 v -2.684211 h 2.982456 c 2.783628,0 2.982456,-0.09942 2.982456,-1.491228 v -1.491228 h 5.964912 5.964908 v -1.491228 -1.491228 h 17.5965 17.596494 v 1.491228 1.491228 h 5.96491 5.96491 v 1.491228 c 0,1.391813 0.19883,1.491228 2.98246,1.491228 h 2.98246 V 42.1462 c 0,2.286549 0.17674,2.68421 1.19298,2.68421 1.16117,0 1.19298,0.397661 1.19298,14.91228 0,14.514618 -0.0318,14.912281 -1.19298,14.912281 -1.01624,0 -1.19298,0.397663 -1.19298,2.68421 v 2.684211 h -2.98246 c -2.78363,0 -2.98246,0.09942 -2.98246,1.491228 v 1.491228 h -5.96491 -5.96491 v 1.491228 1.491228 h -17.596494 -17.5965 z m 35.192994,-5.964912 v -1.491228 h 5.96491 c 5.56725,0 5.96491,-0.07953 5.96491,-1.192983 0,-0.874856 0.39767,-1.192982 1.49123,-1.192982 h 1.49123 V 59.74269 44.83041 h -1.49123 c -1.19298,0 -1.49123,-0.298245 -1.49123,-1.491228 v -1.491228 h -5.96491 c -5.56725,0 -5.96491,-0.07953 -5.96491,-1.192982 0,-1.166023 -0.39766,-1.192983 -17.596494,-1.192983 -17.19883,0 -17.5965,0.02696 -17.5965,1.192983 0,1.11345 -0.39766,1.192982 -5.964908,1.192982 h -5.964912 v 1.491228 c 0,1.192983 -0.298246,1.491228 -1.491228,1.491228 H 60.51462 v 5.964912 5.964913 h 7.45614 7.456136 v -4.473684 c 0,-4.374269 0.0332,-4.473685 1.49123,-4.473685 1.4581,0 1.49123,0.09942 1.49123,4.473685 v 4.473684 h 5.96491 5.96492 v -2.982456 c 0,-2.584796 0.15906,-2.982457 1.19298,-2.982457 0.87485,0 1.19298,0.397661 1.19298,1.491229 0,1.192982 0.29825,1.491228 1.49123,1.491228 1.19298,0 1.49123,0.298245 1.49123,1.491228 0,1.192982 0.29824,1.491228 1.49123,1.491228 1.19298,0 1.49122,0.298245 1.49122,1.491228 0,1.192982 -0.29824,1.491227 -1.49122,1.491227 -1.19299,0 -1.49123,0.298246 -1.49123,1.491228 0,1.192983 -0.29825,1.491228 -1.49123,1.491228 -1.19298,0 -1.49123,0.298246 -1.49123,1.491228 0,1.093566 -0.31813,1.491228 -1.19298,1.491228 -1.03392,0 -1.19298,-0.397662 -1.19298,-2.982456 V 59.74269 h -5.96492 -5.96491 v 4.473684 c 0,4.374267 -0.0331,4.473685 -1.49123,4.473685 -1.45808,0 -1.49123,-0.09942 -1.49123,-4.473685 V 59.74269 H 67.97076 60.51462 v 7.456141 7.45614 h 1.491228 c 1.093565,0 1.491228,0.318126 1.491228,1.192982 0,1.113453 0.397663,1.192983 5.964912,1.192983 h 5.964908 v 1.491228 1.491228 h 17.5965 17.596494 z M 78.409356,70.181287 v -1.491228 h 14.61404 14.614034 V 58.251463 47.812866 H 93.023396 78.409356 V 46.321638 44.83041 h 14.61404 14.614034 v 1.491228 c 0,1.192983 0.29825,1.491228 1.49123,1.491228 h 1.49123 v 10.438597 10.438596 h -1.49123 c -1.19298,0 -1.49123,0.298245 -1.49123,1.491228 v 1.491228 H 93.023396 78.409356 Z"
     id="path817"
     inkscape:connector-curvature="0" />
</svg>
