<?xml version="1.0" encoding="UTF-8" standalone="no"?>
<!-- Created with Inkscape (http://www.inkscape.org/) -->

<svg
   xmlns:dc="http://purl.org/dc/elements/1.1/"
   xmlns:cc="http://creativecommons.org/ns#"
   xmlns:rdf="http://www.w3.org/1999/02/22-rdf-syntax-ns#"
   xmlns:svg="http://www.w3.org/2000/svg"
   xmlns="http://www.w3.org/2000/svg"
   xmlns:sodipodi="http://sodipodi.sourceforge.net/DTD/sodipodi-0.dtd"
   xmlns:inkscape="http://www.inkscape.org/namespaces/inkscape"
   version="1.1"
   id="svg2"
   width="123"
   height="86"
   viewBox="0 0 123 86"
   sodipodi:docname="repeatTime.svg"
   inkscape:version="0.92.2 (5c3e80d, 2017-08-06)">
  <metadata
     id="metadata8">
    <rdf:RDF>
      <cc:Work
         rdf:about="">
        <dc:format>image/svg+xml</dc:format>
        <dc:type
           rdf:resource="http://purl.org/dc/dcmitype/StillImage" />
        <dc:title></dc:title>
      </cc:Work>
    </rdf:RDF>
  </metadata>
  <defs
     id="defs6" />
  <sodipodi:namedview
     pagecolor="#ffffff"
     bordercolor="#666666"
     borderopacity="1"
     objecttolerance="10"
     gridtolerance="10"
     guidetolerance="10"
     inkscape:pageopacity="0"
     inkscape:pageshadow="2"
     inkscape:window-width="1327"
     inkscape:window-height="713"
     id="namedview4"
     showgrid="false"
     inkscape:zoom="2.744186"
     inkscape:cx="61.5"
     inkscape:cy="43"
     inkscape:window-x="39"
     inkscape:window-y="27"
     inkscape:window-maximized="1"
     inkscape:current-layer="svg2" />
  <path
     style="fill:#ffffff;fill-opacity:1"
     d="m 0.99999997,79.144069 c 0,-0.825 0.67500003,-1.5 1.50000003,-1.5 1.238095,0 1.5,-1.83333 1.5,-10.5 0,-9.833335 0.126984,-10.500002 2,-10.500002 1.111111,0 2,-0.666667 2,-1.5 0,-1.133333 1.222222,-1.5 5,-1.5 h 5 v -3.5 c 0,-3.333333 0.166667,-3.5 3.5,-3.5 2.444444,0 3.5,-0.452381 3.5,-1.5 0,-0.825 0.675,-1.5 1.5,-1.5 0.833333,0 1.5,-0.888889 1.5,-2 0,-1.111111 0.666667,-2 1.5,-2 0.825,0 1.5,-0.675 1.5,-1.5 0,-1.27451 2.555556,-1.5 17,-1.5 14.444444,0 17,0.22549 17,1.5 0,0.825 0.675,1.5 1.5,1.5 0.833333,0 1.5,0.888889 1.5,2 0,1.333333 0.666667,2 2,2 1.851852,0 1.999998,-0.666667 1.999998,-9 0,-7.333333 0.27778,-9 1.5,-9 1,0 1.5,-1 1.5,-3 0,-2 0.5,-3 1.5,-3 0.83334,0 1.5,-0.888889 1.5,-2 0,-1.333333 0.66667,-2 2,-2 1.11111,0 2,-0.666667 2,-1.5 0,-1 1,-1.5 3,-1.5 2,0 3,0.5 3,1.5 0,1 -1,1.5 -3,1.5 -2.33333,0 -3,0.444444 -3,2 0,1.333333 -0.66666,2 -2,2 -1.55555,0 -2,0.666667 -2,3 0,2 -0.5,3 -1.5,3 -1.22222,0 -1.5,1.666667 -1.5,9 0,7.333333 0.27778,9 1.5,9 1,0 1.5,1 1.5,3 0,2.333333 0.44445,3 2,3 1.33334,0 2,0.666667 2,2 0,1.555556 0.66667,2 3,2 2,0 3,0.5 3,1.5 0,1.215686 1.61111,1.5 8.5,1.5 6.888892,0 8.500002,-0.284314 8.500002,-1.5 0,-1.047619 1.05556,-1.5 3.5,-1.5 2.83333,0 3.5,-0.380952 3.5,-2 0,-1.111111 0.66667,-2 1.5,-2 1,0 1.5,-1 1.5,-3 0,-2.333333 0.44444,-3 2,-3 1.85185,0 2,-0.666667 2,-9 0,-8.333333 -0.14815,-9 -2,-9 -1.55556,0 -2,-0.666667 -2,-3 0,-2 -0.5,-3 -1.5,-3 -0.83333,0 -1.5,-0.888889 -1.5,-2 0,-1.619048 -0.66667,-2 -3.5,-2 -2.44444,0 -3.5,-0.452381 -3.5,-1.5 0,-1.047619 1.05556,-1.5 3.5,-1.5 2.44444,0 3.5,0.452381 3.5,1.5 0,0.825 0.675,1.5 1.5,1.5 0.83333,0 1.5,0.888889 1.5,2 0,1.333333 0.66667,2 2,2 1.55556,0 2,0.666667 2,3 0,2 0.5,3 1.5,3 1.22222,0 1.5,1.666667 1.5,9 0,7.333333 -0.27778,9 -1.5,9 -1,0 -1.5,1 -1.5,3 0,2.333333 -0.44444,3 -2,3 -1.33333,0 -2,0.666667 -2,2 0,1.111111 -0.66667,2 -1.5,2 -0.825,0 -1.5,0.675 -1.5,1.5 0,1.047619 -1.05556,1.5 -3.5,1.5 -2.83333,0 -3.5,0.380952 -3.5,2 0,1.843137 -0.66667,2 -8.500002,2 -7.83333,0 -8.5,-0.156863 -8.5,-2 0,-1.555556 -0.66666,-2 -3,-2 -2,0 -3,-0.5 -3,-1.5 0,-0.833333 -0.88889,-1.5 -2,-1.5 -1.33333,0 -2,-0.666667 -2,-2 0,-1.111111 -0.66666,-2 -1.5,-2 -1,0 -1.5,-1 -1.5,-3 0,-2 -0.5,-3 -1.5,-3 -1.27928,0 -1.5,2.722222 -1.5,18.5 V 80.644069 H 68.5 65 V 63.644067 c 0,-16.333333 -0.07843,-17 -2,-17 -1.921569,0 -2,0.666667 -2,17 V 80.644069 H 49.5 38 V 63.644067 c 0,-14.444444 -0.22549,-17 -1.5,-17 -1.133333,0 -1.5,1.222222 -1.5,5 0,4.333333 -0.266667,5 -2,5 -1.619048,0 -2,0.666667 -2,3.5 0,2.444444 -0.452381,3.5 -1.5,3.5 -1.047619,0 -1.5,1.055556 -1.5,3.500002 0,2.44444 -0.452381,3.5 -1.5,3.5 -0.825,0 -1.5,0.675 -1.5,1.5 0,0.83333 -0.888889,1.5 -2,1.5 -1.619048,0 -2,0.66667 -2,3.5 v 3.5 h -5 c -3.777778,0 -5,-0.36667 -5,-1.5 0,-0.825 0.675,-1.5 1.5,-1.5 1.047619,0 1.5,-1.05556 1.5,-3.5 0,-2.44445 -0.452381,-3.5 -1.5,-3.5 -1.047619,0 -1.5,-1.05556 -1.5,-3.5 0,-2.444446 0.452381,-3.500002 1.5,-3.500002 1.047619,0 1.5,-1.055556 1.5,-3.5 0,-3.222222 -0.238095,-3.5 -3,-3.5 H 8 v 10.500002 c 0,9.83333 -0.126984,10.5 -2,10.5 -1.111111,0 -2,0.66667 -2,1.5 0,0.825 -0.675,1.5 -1.5,1.5 -0.825,0 -1.50000003,-0.675 -1.50000003,-1.5 z M 25,65.144067 c 0,-0.825 0.675,-1.5 1.5,-1.5 1.047619,0 1.5,-1.055556 1.5,-3.5 0,-2.444444 0.452381,-3.5 1.5,-3.5 1.047619,0 1.5,-1.055556 1.5,-3.5 v -3.5 h -5 -5 v 3.5 c 0,2.444444 -0.452381,3.5 -1.5,3.5 -1.047619,0 -1.5,1.055556 -1.5,3.5 0,2.833333 -0.380952,3.5 -2,3.5 -1.111111,0 -2,0.666667 -2,1.5 0,1.151512 1.277778,1.500002 5.5,1.500002 4.222222,0 5.5,-0.34849 5.5,-1.500002 z m 59.999998,-30.5 c 0,-1.733333 0.66667,-2 5,-2 h 5 v -6.5 c 0,-5.111111 0.32052,-6.5 1.5,-6.5 1.21569,0 1.5,1.611111 1.5,8.5 v 8.5 h -6.5 c -5.83333,0 -6.5,-0.205128 -6.5,-2 z M 41,31.144067 c 0,-0.825 -0.675,-1.5 -1.5,-1.5 -1.190476,0 -1.5,-1.444444 -1.5,-7 0,-5.555556 0.309524,-7 1.5,-7 0.825,0 1.5,-0.675 1.5,-1.5 0,-1.190476 1.444444,-1.5 7,-1.5 5.555556,0 7,0.309524 7,1.5 0,0.825 0.675,1.5 1.5,1.5 1.190476,0 1.5,1.444444 1.5,7 0,5.555556 -0.309524,7 -1.5,7 -0.825,0 -1.5,0.675 -1.5,1.5 0,1.190476 -1.444444,1.5 -7,1.5 -5.555556,0 -7,-0.309524 -7,-1.5 z m 53.999998,-17 c 0,-0.825 -0.675,-1.5 -1.5,-1.5 -0.83333,0 -1.5,-0.888889 -1.5,-2 0,-1.1111105 0.66667,-1.9999995 1.5,-1.9999995 0.825,0 1.5,-0.675 1.5,-1.5 0,-0.825 0.675,-1.5 1.5,-1.5 0.825,0 1.5,0.675 1.5,1.5 0,0.833334 0.88889,1.5 2,1.5 1.333332,0 2.000002,0.666667 2.000002,1.9999995 0,1.333334 -0.66667,2 -2.000002,2 -1.11111,0 -2,0.666667 -2,1.5 0,0.825 -0.675,1.5 -1.5,1.5 -0.825,0 -1.5,-0.675 -1.5,-1.5 z"
     id="path817"
     inkscape:connector-curvature="0" />
</svg>
