<?xml version="1.0" encoding="UTF-8" standalone="no"?>
<!-- Created with Inkscape (http://www.inkscape.org/) -->

<svg
   xmlns:dc="http://purl.org/dc/elements/1.1/"
   xmlns:cc="http://creativecommons.org/ns#"
   xmlns:rdf="http://www.w3.org/1999/02/22-rdf-syntax-ns#"
   xmlns:svg="http://www.w3.org/2000/svg"
   xmlns="http://www.w3.org/2000/svg"
   xmlns:sodipodi="http://sodipodi.sourceforge.net/DTD/sodipodi-0.dtd"
   xmlns:inkscape="http://www.inkscape.org/namespaces/inkscape"
   version="1.1"
   id="svg2"
   width="148"
   height="101"
   viewBox="0 0 148 101"
   sodipodi:docname="silence.svg"
   inkscape:version="0.92.2 (5c3e80d, 2017-08-06)">
  <metadata
     id="metadata8">
    <rdf:RDF>
      <cc:Work
         rdf:about="">
        <dc:format>image/svg+xml</dc:format>
        <dc:type
           rdf:resource="http://purl.org/dc/dcmitype/StillImage" />
        <dc:title />
      </cc:Work>
    </rdf:RDF>
  </metadata>
  <defs
     id="defs6" />
  <sodipodi:namedview
     pagecolor="#ffffff"
     bordercolor="#666666"
     borderopacity="1"
     objecttolerance="10"
     gridtolerance="10"
     guidetolerance="10"
     inkscape:pageopacity="0"
     inkscape:pageshadow="2"
     inkscape:window-width="1327"
     inkscape:window-height="713"
     id="namedview4"
     showgrid="false"
     inkscape:zoom="2.3108108"
     inkscape:cx="5.6257306"
     inkscape:cy="50.5"
     inkscape:window-x="39"
     inkscape:window-y="27"
     inkscape:window-maximized="1"
     inkscape:current-layer="svg2" />
  <path
     style="fill:#4d4d4d;fill-opacity:1"
     d="m 90.567256,89.403505 c 0,-3.33333 -0.33334,-4 -2,-4 -1.70371,0 -2,-0.66666 -2,-4.5 0,-3.83333 -0.2963,-4.5 -2,-4.5 -1.66667,0 -2,-0.66666 -2,-3.999996 v -4 h 4 4 v 4 c 0,3.333336 0.33333,3.999996 2,3.999996 1.7037,0 2,0.66667 2,4.5 0,3.83334 0.29629,4.5 2,4.5 1.7037,0 2,-0.66666 2,-4.5 0,-3.83333 0.29629,-4.5 2.000004,-4.5 1.66667,0 2,-0.66666 2,-3.999996 0,-3.333333 0.33333,-4 2,-4 1.66667,0 2,-0.666667 2,-4 0,-3.333333 0.33333,-4 2,-4 1.66667,0 2,-0.666667 2,-4 0,-3.333333 0.33333,-4 2,-4 1.7037,0 2,-0.666667 2,-4.5 0,-3.833333 0.2963,-4.5 2,-4.5 1.66667,0 2,-0.666667 2,-4 0,-3.333333 0.33333,-4 2,-4 1.66667,0 2,-0.666667 2,-4 0,-3.6 0.25,-4 2.5,-4 2.25,0 2.5,-0.4 2.5,-4 v -4 h 4 4 v 4 c 0,3.333333 -0.33333,4 -2,4 -1.66667,0 -2,0.666667 -2,4 0,3.333333 -0.33333,4 -2,4 -1.66667,0 -2,0.666667 -2,4 0,3.6 -0.25,4 -2.5,4 -2.2963,0 -2.5,0.366667 -2.5,4.5 0,3.833333 -0.2963,4.5 -2,4.5 -1.66667,0 -2,0.666667 -2,4 0,3.333333 -0.33333,4 -2,4 -1.66667,0 -2,0.666667 -2,4 0,3.333333 -0.33333,4 -2,4 -1.66667,0 -2,0.666667 -2,4 0,3.333336 -0.33333,3.999996 -2,3.999996 -1.7037,0 -2,0.66667 -2,4.5 0,3.83334 -0.2963,4.5 -2,4.5 -1.66667,0 -2,0.66667 -2,4 v 4 h -6.000004 -6 z M 12.567251,66.403509 c 0,-1.333333 0.666667,-2 2,-2 1.666667,0 2,-0.666667 2,-4 0,-3.333333 0.333333,-4 2,-4 1.703704,0 2,-0.666667 2,-4.5 0,-3.833333 0.296296,-4.5 2,-4.5 1.666667,0 2,-0.666667 2,-4 0,-3.6 0.25,-4 2.5,-4 2.25,0 2.5,-0.4 2.5,-4 0,-3.333333 0.333333,-4 2,-4 1.666667,0 2,-0.666667 2,-4 0,-3.333333 0.333333,-4 2,-4 1.703704,0 2,-0.666667 2,-4.5 0,-3.833333 0.296296,-4.5 2,-4.5 1.333333,0 2,-0.666667 2,-2 0,-1.333333 0.666667,-2 2,-2 1.333333,0 2,0.666667 2,2 0,1.333333 0.666667,2 2,2 1.703704,0 2,0.666667 2,4.5 0,3.833333 0.296296,4.5 2,4.5 1.666667,0 2,0.666667 2,4 0,3.333333 0.333335,4 2.000005,4 1.66666,0 2,0.666667 2,4 0,3.333333 0.33333,4 2,4 1.66666,0 2,0.666667 2,4 0,3.333333 0.33333,4 2,4 1.7037,0 2,0.666667 2,4.5 0,3.833333 0.29629,4.5 2,4.5 1.66666,0 2,0.666667 2,4 0,3.333333 0.33333,4 2,4 1.33333,0 2,0.666667 2,2 0,1.956284 -0.66667,2 -30.500005,2 -29.833333,0 -30.5,-0.04372 -30.5,-2 z m 49.000005,-8 c 0,-1.333333 -0.66667,-2 -2,-2 -1.70371,0 -2,-0.666667 -2,-4.5 0,-3.833333 -0.2963,-4.5 -2,-4.5 -1.66667,0 -2.000005,-0.666667 -2.000005,-4 0,-3.333333 -0.333333,-4 -2,-4 -1.666667,0 -2,-0.666667 -2,-4 0,-3.333333 -0.333333,-4 -2,-4 -1.333333,0 -2,-0.666667 -2,-2 0,-1.333333 -0.666667,-2 -2,-2 -1.333333,0 -2,0.666667 -2,2 0,1.333333 -0.666667,2 -2,2 -1.666667,0 -2,0.666667 -2,4 0,3.333333 -0.333333,4 -2,4 -1.666667,0 -2,0.666667 -2,4 0,3.333333 -0.333333,4 -2,4 -1.703704,0 -2,0.666667 -2,4.5 0,4.133333 -0.203704,4.5 -2.5,4.5 -1.833333,0 -2.5,0.533333 -2.5,2 0,1.927928 0.666667,2 18.5,2 17.833335,0 18.500005,-0.07207 18.500005,-2 z m 12,-14.5 c 0,-7.833333 -0.15687,-8.5 -2,-8.5 -1.66667,0 -2,-0.666667 -2,-4 0,-3.333333 -0.33334,-4 -2,-4 -1.33334,0 -2,-0.666667 -2,-2 0,-1.666667 -0.66667,-2 -4,-2 -3.33334,0 -4,-0.333333 -4,-2 0,-1.333333 -0.66667,-2 -2,-2 -1.46667,0 -2.000005,-0.666667 -2.000005,-2.5 0,-2.388889 0.266665,-2.5 6.000005,-2.5 5.73333,0 6,0.111111 6,2.5 0,2.25 0.4,2.5 4,2.5 h 4 v 4 c 0,3.6 0.25,4 2.5,4 2.25,0 2.5,0.4 2.5,4 0,3.333333 0.33333,4 2,4 1.77777,0 2,0.666667 2,6 0,5.333333 -0.22223,6 -2,6 -1.46667,0 -2,0.666667 -2,2.5 0,2 -0.5,2.5 -2.5,2.5 -2.47059,0 -2.5,-0.1 -2.5,-8.5 z"
     id="path817"
     inkscape:connector-curvature="0" />
</svg>
