<?xml version="1.0" encoding="UTF-8" standalone="no"?>
<!-- Created with Inkscape (http://www.inkscape.org/) -->

<svg
   xmlns:dc="http://purl.org/dc/elements/1.1/"
   xmlns:cc="http://creativecommons.org/ns#"
   xmlns:rdf="http://www.w3.org/1999/02/22-rdf-syntax-ns#"
   xmlns:svg="http://www.w3.org/2000/svg"
   xmlns="http://www.w3.org/2000/svg"
   xmlns:sodipodi="http://sodipodi.sourceforge.net/DTD/sodipodi-0.dtd"
   xmlns:inkscape="http://www.inkscape.org/namespaces/inkscape"
   version="1.1"
   id="svg2"
   width="126"
   height="86"
   viewBox="0 0 126 86"
   sodipodi:docname="startNBP.svg"
   inkscape:version="0.92.2 (5c3e80d, 2017-08-06)">
  <metadata
     id="metadata8">
    <rdf:RDF>
      <cc:Work
         rdf:about="">
        <dc:format>image/svg+xml</dc:format>
        <dc:type
           rdf:resource="http://purl.org/dc/dcmitype/StillImage" />
        <dc:title></dc:title>
      </cc:Work>
    </rdf:RDF>
  </metadata>
  <defs
     id="defs6" />
  <sodipodi:namedview
     pagecolor="#ffffff"
     bordercolor="#666666"
     borderopacity="1"
     objecttolerance="10"
     gridtolerance="10"
     guidetolerance="10"
     inkscape:pageopacity="0"
     inkscape:pageshadow="2"
     inkscape:window-width="1327"
     inkscape:window-height="713"
     id="namedview4"
     showgrid="false"
     inkscape:zoom="2.7142857"
     inkscape:cx="63"
     inkscape:cy="43"
     inkscape:window-x="39"
     inkscape:window-y="27"
     inkscape:window-maximized="1"
     inkscape:current-layer="svg2" />
  <path
     style="fill:#ffffff;fill-opacity:1"
     d="m 5.2105263,77.078947 c 0,-0.83333 0.888889,-1.5 2,-1.5 1.843137,0 2,-0.66667 2,-8.5 0,-6.888889 0.284314,-8.5 1.4999997,-8.5 0.825,0 1.5,-0.675 1.5,-1.5 0,-0.833333 0.888889,-1.5 2,-1.5 1.333333,0 2,-0.666667 2,-2 0,-1.733333 0.666667,-2 5,-2 h 5 v -3.5 c 0,-3.222222 0.238095,-3.5 3,-3.5 2,0 3,-0.5 3,-1.5 0,-0.833333 0.888889,-1.5 2,-1.5 1.111111,0 2,-0.666667 2,-1.5 0,-0.825 0.675,-1.5 1.5,-1.5 0.833333,0 1.5,-0.888889 1.5,-2 0,-1.921569 0.666667,-2 17,-2 16.333333,0 17,0.07843 17,2 0,1.333333 0.666667,2 2,2 1.11111,0 2,0.666667 2,1.5 0,0.825 0.675,1.5 1.5,1.5 1.27928,0 1.5,2.722222 1.5,18.5 v 18.5 h -3.5 -3.5 v -15 c 0,-12.666667 -0.233333,-15 -1.5,-15 -1.266667,0 -1.5,2.333333 -1.5,15 v 15 h -12 -12 v -15 c 0,-12.666667 -0.233333,-15 -1.5,-15 -1.047619,0 -1.5,1.055556 -1.5,3.5 0,2.833333 -0.380952,3.5 -2,3.5 -1.555556,0 -2,0.666667 -2,3 0,2 -0.5,3 -1.5,3 -1.047619,0 -1.5,1.05556 -1.5,3.5 0,2.83333 -0.380952,3.5 -2,3.5 -1.111111,0 -2,0.66667 -2,1.5 0,0.825 -0.675,1.5 -1.5,1.5 -1.047619,0 -1.5,1.05556 -1.5,3.5 v 3.5 h -5 -5 v -3.5 c 0,-2.44444 0.452381,-3.5 1.5,-3.5 0.825,0 1.5,-0.675 1.5,-1.5 0,-0.825 -0.675,-1.5 -1.5,-1.5 -1.047619,0 -1.5,-1.05556 -1.5,-3.5 0,-2.44444 0.452381,-3.5 1.5,-3.5 1,0 1.5,-1 1.5,-3 0,-2.666667 -0.333333,-3 -3,-3 -2,0 -3,0.5 -3,1.5 0,0.833333 -0.888889,1.5 -2,1.5 -1.843137,0 -2,0.666667 -2,8.5 0,6.88889 -0.284314,8.5 -1.5,8.5 -0.8249997,0 -1.4999997,0.675 -1.4999997,1.5 0,0.83333 -0.888889,1.5 -2,1.5 -1.111111,0 -2,-0.66667 -2,-1.5 z m 26.9999997,-13.5 c 0,-1.33333 0.666667,-2 2,-2 1.555556,0 2,-0.66667 2,-3 0,-2 0.5,-3 1.5,-3 1.047619,0 1.5,-1.055556 1.5,-3.5 v -3.5 h -5 -5 v 3.5 c 0,2.444444 -0.452381,3.5 -1.5,3.5 -1,0 -1.5,1 -1.5,3 0,2.33333 -0.444444,3 -2,3 -1.333333,0 -2,0.66667 -2,2 0,1.73333 0.666667,2 5,2 4.333333,0 5,-0.26667 5,-2 z m 65,-13.5 c 0,-0.833333 -0.88889,-1.5 -2,-1.5 -1.33333,0 -2,-0.666667 -2,-2 0,-1.111111 -0.66667,-2 -1.5,-2 -0.825,0 -1.5,-0.675 -1.5,-1.5 0,-0.825 -0.675,-1.5 -1.5,-1.5 -0.825,0 -1.5,-0.675 -1.5,-1.5 0,-0.833333 -0.88889,-1.5 -2,-1.5 -1.33333,0 -2,-0.666667 -2,-2 0,-1.111111 -0.66667,-2 -1.5,-2 -0.825,0 -1.5,-0.675 -1.5,-1.5 0,-0.825 -0.675,-1.5 -1.5,-1.5 -0.825,0 -1.5,-0.675 -1.5,-1.5 0,-0.825 0.675,-1.5 1.5,-1.5 0.83333,0 1.5,-0.888889 1.5,-2 0,-1.111111 0.66667,-2 1.5,-2 0.825,0 1.5,-0.675 1.5,-1.5 0,-0.833333 0.88889,-1.5 2,-1.5 1.33333,0 2,-0.666667 2,-2 0,-1.111111 0.66667,-2 1.5,-2 0.825,0 1.5,-0.675 1.5,-1.5 0,-0.825 0.675,-1.5 1.5,-1.5 0.825,0 1.5,-0.675 1.5,-1.5 0,-0.833333 0.88889,-1.5 2,-1.5 1.33333,0 2,-0.666667 2,-1.9999996 0,-1.111111 0.66667,-2 1.5,-2 0.83333,0 1.500004,0.888889 1.500004,2 0,1.3333326 0.66667,1.9999996 2,1.9999996 1.11111,0 2,0.666667 2,1.5 0,0.825 0.675,1.5 1.5,1.5 0.825,0 1.5,0.675 1.5,1.5 0,0.825 0.675,1.5 1.5,1.5 0.83333,0 1.5,0.888889 1.5,2 0,1.333333 0.66667,2 2,2 1.11111,0 2,0.666667 2,1.5 0,0.825 0.675,1.5 1.5,1.5 0.83333,0 1.5,0.888889 1.5,2 0,1.333333 0.66667,2 2,2 1.11111,0 2,0.666667 2,1.5 0,0.833333 -0.88889,1.5 -2,1.5 -1.11111,0 -2,0.666667 -2,1.5 0,0.825 -0.675,1.5 -1.5,1.5 -0.83333,0 -1.5,0.888889 -1.5,2 0,1.333333 -0.66667,2 -2,2 -1.11111,0 -2,0.666667 -2,1.5 0,0.825 -0.675,1.5 -1.5,1.5 -0.825,0 -1.5,0.675 -1.5,1.5 0,0.825 -0.675,1.5 -1.5,1.5 -0.83333,0 -1.5,0.888889 -1.5,2 0,1.333333 -0.66667,2 -2,2 -1.11111,0 -2,0.666667 -2,1.5 0,0.825 -0.675004,1.5 -1.500004,1.5 -0.825,0 -1.5,-0.675 -1.5,-1.5 z m 3.000004,-3.5 c 0,-1.333333 0.66667,-2 2,-2 1.11111,0 2,-0.666667 2,-1.5 0,-0.825 0.675,-1.5 1.5,-1.5 0.825,0 1.5,-0.675 1.5,-1.5 0,-0.825 0.675,-1.5 1.5,-1.5 0.83333,0 1.5,-0.888889 1.5,-2 0,-1.333333 0.66667,-2 2,-2 1.11111,0 2,-0.666667 2,-1.5 0,-0.825 0.675,-1.5 1.5,-1.5 0.825,0 1.5,-0.675 1.5,-1.5 0,-0.825 -0.675,-1.5 -1.5,-1.5 -0.83333,0 -1.5,-0.888889 -1.5,-2 0,-1.333333 -0.66667,-2 -2,-2 -1.11111,0 -2,-0.666667 -2,-1.5 0,-0.825 -0.675,-1.5 -1.5,-1.5 -0.83333,0 -1.5,-0.888889 -1.5,-2 0,-1.111111 -0.66667,-2 -1.5,-2 -0.825,0 -1.5,-0.675 -1.5,-1.5 0,-0.833333 -0.88889,-1.5 -2,-1.5 -1.11111,0 -2,-0.666667 -2,-1.5 0,-0.825 -0.675004,-1.5 -1.500004,-1.5 -0.825,0 -1.5,0.675 -1.5,1.5 0,0.833333 -0.88889,1.5 -2,1.5 -1.11111,0 -2,0.666667 -2,1.5 0,0.825 -0.675,1.5 -1.5,1.5 -0.83333,0 -1.5,0.888889 -1.5,2 0,1.111111 -0.66667,2 -1.5,2 -0.825,0 -1.5,0.675 -1.5,1.5 0,0.833333 -0.88889,1.5 -2,1.5 -1.33333,0 -2,0.666667 -2,2 0,1.111111 -0.66667,2 -1.5,2 -0.825,0 -1.5,0.675 -1.5,1.5 0,0.825 0.675,1.5 1.5,1.5 0.825,0 1.5,0.675 1.5,1.5 0,0.833333 0.88889,1.5 2,1.5 1.33333,0 2,0.666667 2,2 0,1.111111 0.66667,2 1.5,2 0.825,0 1.5,0.675 1.5,1.5 0,0.825 0.675,1.5 1.5,1.5 0.825,0 1.5,0.675 1.5,1.5 0,0.833333 0.88889,1.5 2,1.5 1.33333,0 2,0.666667 2,2 0,1.111111 0.66667,2 1.5,2 0.83333,0 1.500004,-0.888889 1.500004,-2 z m -3.000004,-17 c 0,-10 0.25,-12 1.5,-12 1.25,0 1.500004,2 1.500004,12 0,10 -0.250004,12 -1.500004,12 -1.25,0 -1.5,-2 -1.5,-12 z m -48,0.5 c 0,-0.825 -0.675,-1.5 -1.5,-1.5 -1.190476,0 -1.5,-1.444444 -1.5,-7 0,-5.555556 0.309524,-7 1.5,-7 0.825,0 1.5,-0.675 1.5,-1.5 0,-1.190476 1.444444,-1.5 7,-1.5 5.555556,0 7,0.309524 7,1.5 0,0.825 0.675,1.5 1.5,1.5 1.190476,0 1.5,1.444444 1.5,7 0,5.555556 -0.309524,7 -1.5,7 -0.825,0 -1.5,0.675 -1.5,1.5 0,1.190476 -1.444444,1.5 -7,1.5 -5.555556,0 -7,-0.309524 -7,-1.5 z"
     id="path817"
     inkscape:connector-curvature="0" />
</svg>
