<?xml version="1.0" encoding="UTF-8" standalone="no"?>
<!-- Created with Inkscape (http://www.inkscape.org/) -->

<svg
   xmlns:dc="http://purl.org/dc/elements/1.1/"
   xmlns:cc="http://creativecommons.org/ns#"
   xmlns:rdf="http://www.w3.org/1999/02/22-rdf-syntax-ns#"
   xmlns:svg="http://www.w3.org/2000/svg"
   xmlns="http://www.w3.org/2000/svg"
   xmlns:sodipodi="http://sodipodi.sourceforge.net/DTD/sodipodi-0.dtd"
   xmlns:inkscape="http://www.inkscape.org/namespaces/inkscape"
   version="1.1"
   id="svg2"
   width="128"
   height="85"
   viewBox="0 0 128 85"
   sodipodi:docname="startStop.svg"
   inkscape:version="0.92.2 (5c3e80d, 2017-08-06)">
  <metadata
     id="metadata8">
    <rdf:RDF>
      <cc:Work
         rdf:about="">
        <dc:format>image/svg+xml</dc:format>
        <dc:type
           rdf:resource="http://purl.org/dc/dcmitype/StillImage" />
        <dc:title></dc:title>
      </cc:Work>
    </rdf:RDF>
  </metadata>
  <defs
     id="defs6" />
  <sodipodi:namedview
     pagecolor="#ffffff"
     bordercolor="#666666"
     borderopacity="1"
     objecttolerance="10"
     gridtolerance="10"
     guidetolerance="10"
     inkscape:pageopacity="0"
     inkscape:pageshadow="2"
     inkscape:window-width="1327"
     inkscape:window-height="713"
     id="namedview4"
     showgrid="false"
     inkscape:zoom="2.671875"
     inkscape:cx="81.643707"
     inkscape:cy="52.925817"
     inkscape:window-x="39"
     inkscape:window-y="27"
     inkscape:window-maximized="1"
     inkscape:current-layer="svg2" />
  <path
     style="fill:#ffffff;fill-opacity:1"
     d="m 93.637429,77.239768 c 0,-1.61905 -0.66667,-2 -3.5,-2 -2.44445,0 -3.5,-0.45238 -3.5,-1.5 0,-0.825 -0.675,-1.5 -1.5,-1.5 -1.04762,0 -1.5,-1.05556 -1.5,-3.5 0,-2.83334 -0.38095,-3.5 -2,-3.5 -1.73333,0 -2,-0.66667 -2,-5 0,-4.333335 0.26667,-5.000002 2,-5.000002 1.73333,0 2,0.666667 2,5.000002 0,3.77778 0.36667,5 1.5,5 0.825,0 1.5,0.675 1.5,1.5 0,0.825 0.675,1.5 1.5,1.5 0.83333,0 1.5,0.88889 1.5,2 0,1.80952 0.66667,2 7,2 6.333331,0 7.000001,-0.19048 7.000001,-2 0,-1.11111 0.66667,-2 1.5,-2 0.825,0 1.5,-0.675 1.5,-1.5 0,-0.83334 0.88889,-1.5 2,-1.5 1.61905,0 2,-0.66667 2,-3.5 0,-2.833335 -0.38095,-3.500002 -2,-3.500002 -1.33333,0 -2,0.666667 -2,2.000002 0,1.11111 -0.66667,2 -1.5,2 -0.825,0 -1.5,0.675 -1.5,1.5 0,0.825 -0.675,1.5 -1.5,1.5 -0.825,0 -1.5,0.675 -1.5,1.5 0,1.04762 -1.055561,1.5 -3.500001,1.5 -2.44444,0 -3.5,-0.45238 -3.5,-1.5 0,-0.83334 -0.88889,-1.5 -2,-1.5 -1.11111,0 -2,-0.66667 -2,-1.5 0,-0.825 -0.675,-1.5 -1.5,-1.5 -1.04762,0 -1.5,-1.05556 -1.5,-3.500002 0,-2.444444 -0.45238,-3.5 -1.5,-3.5 -1.04762,0 -1.5,-1.055556 -1.5,-3.5 0,-2.444444 0.45238,-3.5 1.5,-3.5 0.825,0 1.5,-0.675 1.5,-1.5 0,-1.047619 1.05555,-1.5 3.5,-1.5 2.83333,0 3.5,-0.380952 3.5,-2 0,-1.111111 0.66667,-2 1.5,-2 0.825,0 1.5,-0.675 1.5,-1.5 0,-0.825 -0.675,-1.5 -1.5,-1.5 -0.83333,0 -1.5,-0.888889 -1.5,-2 0,-1.333333 -0.66667,-2 -2,-2 -1.11111,0 -2,-0.666667 -2,-1.5 0,-0.825 -0.675,-1.5 -1.5,-1.5 -0.83333,0 -1.5,-0.888889 -1.5,-2 0,-1.111111 -0.66667,-2 -1.5,-2 -0.825,0 -1.5,-0.675 -1.5,-1.5 0,-0.833333 -0.88889,-1.5 -2,-1.5 -1.11111,0 -2,-0.666667 -2,-1.5 0,-0.833333 0.88889,-1.5 2,-1.5 1.33333,0 2,-0.666667 2,-2 0,-1.111111 0.66667,-2 1.5,-2 0.825,0 1.5,-0.675 1.5,-1.5 0,-0.825 0.675,-1.5 1.5,-1.5 0.83333,0 1.5,-0.888889 1.5,-2 0,-1.333334 0.66667,-2 2,-2 1.11111,0 2,-0.6666666 2,-1.4999996 0,-1.047619 1.05556,-1.5 3.5,-1.5 2.44444,0 3.500001,0.452381 3.500001,1.5 0,0.825 0.675,1.4999996 1.5,1.4999996 0.83333,0 1.5,0.888889 1.5,2 0,1.111111 0.66667,2 1.5,2 0.825,0 1.5,0.675 1.5,1.5 0,0.833333 0.88889,1.5 2,1.5 1.33333,0 2,0.666667 2,2 0,1.111111 0.66667,2 1.5,2 1,0 1.5,1 1.5,3 0,2 -0.5,3 -1.5,3 -0.83333,0 -1.5,0.888889 -1.5,2 0,1.333333 -0.66667,2 -2,2 -1.11111,0 -2,0.666667 -2,1.5 0,0.825 -0.675,1.5 -1.5,1.5 -0.83333,0 -1.5,0.888889 -1.5,2 0,1.111111 -0.66667,2 -1.5,2 -1.04762,0 -1.5,1.055556 -1.5,3.5 0,3.222222 0.2381,3.5 3,3.5 2,0 3,0.5 3,1.5 0,0.833333 0.88889,1.5 2,1.5 1.61905,0 2,0.666667 2,3.5 0,2.444444 0.45238,3.5 1.5,3.5 1.13333,0 1.5,1.222222 1.5,5.000002 0,3.77778 -0.36667,5 -1.5,5 -1.04762,0 -1.5,1.05555 -1.5,3.5 0,2.83333 -0.38095,3.5 -2,3.5 -1.11111,0 -2,0.66666 -2,1.5 0,1 -1,1.5 -3,1.5 -2.33333,0 -3,0.44444 -3,2 0,1.61905 -0.666671,2 -3.500001,2 -2.83333,0 -3.5,-0.38095 -3.5,-2 z m 7.000001,-17 c 0,-1.111113 0.66667,-2.000002 1.5,-2.000002 0.825,0 1.5,-0.675 1.5,-1.5 0,-1.190476 -1.44444,-1.5 -7.000001,-1.5 -5.55556,0 -7,0.309524 -7,1.5 0,0.833333 0.88889,1.5 2,1.5 1.33333,0 2,0.666667 2,2.000002 0,1.61905 0.66667,2 3.5,2 2.83333,0 3.500001,-0.38095 3.500001,-2 z m 3,-10.500002 c 0,-1.190476 -1.44444,-1.5 -7.000001,-1.5 -5.55556,0 -7,0.309524 -7,1.5 0,1.190476 1.44444,1.5 7,1.5 5.555561,0 7.000001,-0.309524 7.000001,-1.5 z m -3,-17 c 0,-0.825 0.675,-1.5 1.5,-1.5 0.83333,0 1.5,-0.888889 1.5,-2 0,-1.111111 0.66667,-2 1.5,-2 0.825,0 1.5,-0.675 1.5,-1.5 0,-0.833333 0.88889,-1.5 2,-1.5 1.11111,0 2,-0.666667 2,-1.5 0,-0.833333 -0.88889,-1.5 -2,-1.5 -1.33333,0 -2,-0.666667 -2,-2 0,-1.111111 -0.66667,-2 -1.5,-2 -0.825,0 -1.5,-0.675 -1.5,-1.5 0,-0.825 -0.675,-1.5 -1.5,-1.5 -0.83333,0 -1.5,-0.888889 -1.5,-2 0,-1.333334 -0.666671,-2 -2.000001,-2 -1.33333,0 -2,0.666666 -2,2 0,1.111111 -0.66667,2 -1.5,2 -0.825,0 -1.5,0.675 -1.5,1.5 0,0.833333 -0.88889,1.5 -2,1.5 -1.33333,0 -2,0.666667 -2,2 0,1.111111 -0.66667,2 -1.5,2 -1,0 -1.5,1 -1.5,3 0,2 0.5,3 1.5,3 0.83333,0 1.5,0.888889 1.5,2 0,1.333333 0.66667,2 2,2 1.11111,0 2,0.666667 2,1.5 0,1.047619 1.05556,1.5 3.5,1.5 2.44444,0 3.500001,-0.452381 3.500001,-1.5 z m -4.000001,-8.5 c 0,-6.333333 0.19048,-7 2,-7 1.809521,0 2.000001,0.666667 2.000001,7 0,6.333333 -0.19048,7 -2.000001,7 -1.80952,0 -2,-0.666667 -2,-7 z m -78,47.500002 c 0,-2.44445 0.45238,-3.5 1.5,-3.5 0.825,0 1.5,-0.675 1.5,-1.5 0,-0.825 -0.675,-1.5 -1.5,-1.5 -0.825,0 -1.5,0.675 -1.5,1.5 0,0.83333 -0.88889,1.5 -2,1.5 -1.33333,0 -2,0.66666 -2,2 0,1.11111 -0.66667,2 -1.5,2 -1.21569,0 -1.5,-1.61111 -1.5,-8.5 0,-6.888891 0.28431,-8.500002 1.5,-8.500002 0.83333,0 1.5,-0.888889 1.5,-2 0,-1.333333 0.66667,-2 2,-2 1.11111,0 2,-0.666667 2,-1.5 0,-1.047619 1.05555,-1.5 3.5,-1.5 2.44444,0 3.5,-0.452381 3.5,-1.5 0,-0.825 0.675,-1.5 1.5,-1.5 0.83333,0 1.5,-0.888889 1.5,-2 0,-1.619048 0.66667,-2 3.5,-2 2.44444,0 3.5,-0.452381 3.5,-1.5 0,-0.825 0.675,-1.5 1.5,-1.5 0.83333,0 1.5,-0.888889 1.5,-2 0,-1.913978 0.66667,-2 15.5,-2 14.83333,0 15.5,0.08602 15.5,2 0,1.111111 0.66667,2 1.5,2 0.825,0 1.5,0.675 1.5,1.5 0,0.833333 0.88889,1.5 2,1.5 1.91398,0 2,0.666667 2,15.5 0,14.833332 -0.086,15.500002 -2,15.500002 -1.11111,0 -2,0.66666 -2,1.5 0,0.825 -0.675,1.5 -1.5,1.5 -1.25926,0 -1.5,-2.16667 -1.5,-13.5 0,-11.333335 -0.24074,-13.500002 -1.5,-13.500002 -1.25,0 -1.5,2 -1.5,12.000002 0,11.33333 -0.11111,12 -2,12 -1.11111,0 -2,0.66666 -2,1.5 0,1.21568 -1.61111,1.5 -8.5,1.5 -6.88889,0 -8.5,-0.28432 -8.5,-1.5 0,-0.825 -0.675,-1.5 -1.5,-1.5 -1.2381,0 -1.5,-1.83334 -1.5,-10.5 0,-8.666669 0.2619,-10.500002 1.5,-10.500002 0.825,0 1.5,-0.675 1.5,-1.5 0,-0.825 -0.675,-1.5 -1.5,-1.5 -0.825,0 -1.5,0.675 -1.5,1.5 0,0.833333 -0.88889,1.5 -2,1.5 -1.61905,0 -2,0.666667 -2,3.5 0,2.444444 -0.45238,3.5 -1.5,3.5 -1.04762,0 -1.5,1.055552 -1.5,3.500002 0,2.83333 -0.38095,3.5 -2,3.5 -1.11111,0 -2,0.66666 -2,1.5 0,0.825 -0.675,1.5 -1.5,1.5 -1.04762,0 -1.5,1.05555 -1.5,3.5 v 3.5 h -5 -5 z m 13,-11.5 c 0,-1.333335 0.66667,-2.000002 2,-2.000002 1.61905,0 2,-0.666667 2,-3.5 0,-2.444444 0.45238,-3.5 1.5,-3.5 0.825,0 1.5,-0.675 1.5,-1.5 0,-1.133333 -1.22222,-1.5 -5,-1.5 h -5 v 3.5 c 0,2.444444 -0.45238,3.5 -1.5,3.5 -1.04762,0 -1.5,1.055556 -1.5,3.5 0,3.222222 0.23809,3.500002 3,3.500002 2.33333,0 3,-0.44445 3,-2 z m -10,-5.500002 c 0,-2.444444 -0.45238,-3.5 -1.5,-3.5 -1.04762,0 -1.5,1.055556 -1.5,3.5 0,2.444444 0.45238,3.5 1.5,3.5 1.04762,0 1.5,-1.055556 1.5,-3.5 z m 24,-25.5 c 0,-1.111111 -0.66667,-2 -1.5,-2 -1.13333,0 -1.5,-1.222222 -1.5,-5 0,-3.777778 0.36667,-5 1.5,-5 0.825,0 1.5,-0.675 1.5,-1.5 0,-1.190476 1.44444,-1.5 7,-1.5 5.55555,0 7,0.309524 7,1.5 0,0.825 0.675,1.5 1.5,1.5 1.13333,0 1.5,1.222222 1.5,5 0,3.777778 -0.36667,5 -1.5,5 -0.83333,0 -1.5,0.888889 -1.5,2 0,1.809524 -0.66667,2 -7,2 -6.33333,0 -7,-0.190476 -7,-2 z"
     id="path817"
     inkscape:connector-curvature="0" />
</svg>
