<?xml version="1.0" encoding="UTF-8" standalone="no"?>
<!-- Created with Inkscape (http://www.inkscape.org/) -->

<svg
   xmlns:dc="http://purl.org/dc/elements/1.1/"
   xmlns:cc="http://creativecommons.org/ns#"
   xmlns:rdf="http://www.w3.org/1999/02/22-rdf-syntax-ns#"
   xmlns:svg="http://www.w3.org/2000/svg"
   xmlns="http://www.w3.org/2000/svg"
   xmlns:sodipodi="http://sodipodi.sourceforge.net/DTD/sodipodi-0.dtd"
   xmlns:inkscape="http://www.inkscape.org/namespaces/inkscape"
   version="1.1"
   id="svg2"
   width="130"
   height="84"
   viewBox="0 0 130 84"
   sodipodi:docname="stopAll.svg"
   inkscape:version="0.92.2 (5c3e80d, 2017-08-06)">
  <metadata
     id="metadata8">
    <rdf:RDF>
      <cc:Work
         rdf:about="">
        <dc:format>image/svg+xml</dc:format>
        <dc:type
           rdf:resource="http://purl.org/dc/dcmitype/StillImage" />
        <dc:title></dc:title>
      </cc:Work>
    </rdf:RDF>
  </metadata>
  <defs
     id="defs6" />
  <sodipodi:namedview
     pagecolor="#ffffff"
     bordercolor="#666666"
     borderopacity="1"
     objecttolerance="10"
     gridtolerance="10"
     guidetolerance="10"
     inkscape:pageopacity="0"
     inkscape:pageshadow="2"
     inkscape:window-width="1327"
     inkscape:window-height="713"
     id="namedview4"
     showgrid="false"
     inkscape:zoom="2.6307692"
     inkscape:cx="65"
     inkscape:cy="42"
     inkscape:window-x="39"
     inkscape:window-y="27"
     inkscape:window-maximized="1"
     inkscape:current-layer="svg2" />
  <path
     style="fill:#ffffff;fill-opacity:0.97560978"
     d="m 4.0000003,76.780701 c 0,-0.833333 0.888889,-1.5 2,-1.5 1.866666,0 2,-0.666667 2,-10 0,-8.222222 0.266666,-10 1.5,-10 0.8333327,0 1.4999997,-0.888889 1.4999997,-2 0,-1.733333 0.666667,-2 5,-2 h 5 v -3.5 c 0,-3.333333 0.166667,-3.5 3.5,-3.5 2.444444,0 3.5,-0.452381 3.5,-1.5 0,-0.833333 0.888889,-1.5 2,-1.5 1.111111,0 2,-0.666667 2,-1.5 0,-0.825 0.675,-1.5 1.5,-1.5 0.833333,0 1.5,-0.888889 1.5,-2 0,-1.921569 0.666667,-2 17,-2 16.333333,0 17,0.07843 17,2 0,1.111111 0.666667,2 1.5,2 0.825,0 1.5,0.675 1.5,1.5 0,0.833333 0.888889,1.5 2,1.5 1.927928,0 2,0.666667 2,18.5 V 78.280706 H 72.5 69 V 61.280701 c 0,-16.333333 -0.07843,-17 -2,-17 -1.921569,0 -2,0.666667 -2,17 V 78.280706 H 53.5 42 V 61.280701 c 0,-16.333333 -0.07843,-17 -2,-17 -1.757576,0 -2,0.666667 -2,5.5 0,4.222222 -0.348485,5.5 -1.5,5.5 -1,0 -1.5,1 -1.5,3 0,2 -0.5,3 -1.5,3 -1.047619,0 -1.5,1.055556 -1.5,3.5 0,2.833333 -0.380952,3.5 -2,3.5 -1.111111,0 -2,0.666667 -2,1.5 0,0.825 -0.675,1.5 -1.5,1.5 -1.047619,0 -1.5,1.055556 -1.5,3.5 v 3.500005 h -5 c -3.777778,0 -5,-0.366672 -5,-1.500005 0,-0.825 0.675,-1.5 1.5,-1.5 1.047619,0 1.5,-1.055556 1.5,-3.5 0,-2.444444 -0.452381,-3.5 -1.5,-3.5 -1.047619,0 -1.5,-1.055556 -1.5,-3.5 0,-2.444444 0.452381,-3.5 1.5,-3.5 1,0 1.5,-1 1.5,-3 0,-2.761905 -0.277778,-3 -3.5,-3 H 11 v 10 c 0,8.222222 -0.266667,10 -1.4999997,10 -0.825,0 -1.5,0.675 -1.5,1.5 0,0.833333 -0.888889,1.500005 -2,1.500005 -1.111111,0 -2,-0.666672 -2,-1.500005 z M 28,63.280701 c 0,-1.333333 0.666667,-2 2,-2 1.555556,0 2,-0.666667 2,-3 0,-2 0.5,-3 1.5,-3 1.047619,0 1.5,-1.055556 1.5,-3.5 v -3.5 h -5 -5 v 3.5 c 0,2.833333 -0.380952,3.5 -2,3.5 -1.555556,0 -2,0.666667 -2,3 0,2 -0.5,3 -1.5,3 -0.833333,0 -1.5,0.888889 -1.5,2 0,1.733333 0.666667,2 5,2 4.333333,0 5,-0.266667 5,-2 z m 65.000004,-10 c 0,-1.619048 -0.66667,-2 -3.5,-2 -2.444448,0 -3.500004,-0.452381 -3.500004,-1.5 0,-0.833333 -0.888889,-1.5 -2,-1.5 -1.333333,0 -2,-0.666667 -2,-2 0,-1.111111 -0.666667,-2 -1.5,-2 -1,0 -1.5,-1 -1.5,-3 0,-2 -0.5,-3 -1.5,-3 -1.190476,0 -1.5,-1.444444 -1.5,-7 0,-5.555556 0.309524,-7 1.5,-7 1.047619,0 1.5,-1.055556 1.5,-3.5 0,-2.444444 0.452381,-3.5 1.5,-3.5 0.825,0 1.5,-0.675 1.5,-1.5 0,-0.833333 0.888889,-1.5 2,-1.5 1.111111,0 2,-0.666667 2,-1.5 0,-1.047619 1.055556,-1.5 3.500004,-1.5 2.83333,0 3.5,-0.380952 3.5,-1.9999996 0,-1.843137 0.66666,-2 8.499996,-2 7.83333,0 8.5,0.156863 8.5,2 0,1.5555556 0.66667,1.9999996 3,1.9999996 2,0 3,0.5 3,1.5 0,0.833333 0.88889,1.5 2,1.5 1.11111,0 2,0.666667 2,1.5 0,0.825 0.675,1.5 1.5,1.5 1.04762,0 1.5,1.055556 1.5,3.5 0,2.833333 0.38095,3.5 2,3.5 1.80952,0 2,0.666667 2,7 0,6.333333 -0.19048,7 -2,7 -1.55556,0 -2,0.666667 -2,3 0,2 -0.5,3 -1.5,3 -0.83333,0 -1.5,0.888889 -1.5,2 0,1.333333 -0.66667,2 -2,2 -1.11111,0 -2,0.666667 -2,1.5 0,1 -1,1.5 -3,1.5 -2.33333,0 -3,0.444444 -3,2 0,1.843137 -0.66667,2 -8.5,2 -7.833336,0 -8.499996,-0.156863 -8.499996,-2 z m 6,-3.5 c 0,-0.833333 0.88888,-1.5 1.999996,-1.5 1.11111,0 2,0.666667 2,1.5 0,1.047619 1.05556,1.5 3.5,1.5 2.44444,0 3.5,-0.452381 3.5,-1.5 0,-1 1,-1.5 3,-1.5 2.33333,0 3,-0.444444 3,-2 0,-1.333333 0.66667,-2 2,-2 1.55556,0 2,-0.666667 2,-3 0,-2 0.5,-3 1.5,-3 1.19048,0 1.5,-1.444444 1.5,-7 0,-5.555556 -0.30952,-7 -1.5,-7 -0.825,0 -1.5,-0.675 -1.5,-1.5 0,-0.833333 -0.88889,-1.5 -2,-1.5 -1.61905,0 -2,0.666667 -2,3.5 0,2.444444 -0.45238,3.5 -1.5,3.5 -1,0 -1.5,1 -1.5,3 0,2 -0.5,3 -1.5,3 -1.04762,0 -1.5,1.055556 -1.5,3.5 0,2.833333 -0.38095,3.5 -2,3.5 -1.61905,0 -2,0.666667 -2,3.5 0,2.444444 -0.45238,3.5 -1.5,3.5 -1.04762,0 -1.5,-1.055556 -1.5,-3.5 0,-2.444444 0.45238,-3.5 1.5,-3.5 1.04762,0 1.5,-1.055556 1.5,-3.5 0,-2.833333 0.38095,-3.5 2,-3.5 1.55556,0 2,-0.666667 2,-3 0,-2 0.5,-3 1.5,-3 1.04762,0 1.5,-1.055556 1.5,-3.5 v -3.5 H 101 89.000004 v 3.5 c 0,2.833333 0.38095,3.5 2,3.5 1.55555,0 2,0.666667 2,3 0,2 0.5,3 1.5,3 1.04761,0 1.5,1.055556 1.5,3.5 0,2.444444 0.45238,3.5 1.5,3.5 1.04761,0 1.5,1.055556 1.5,3.5 0,2.444444 -0.45239,3.5 -1.5,3.5 -1.04762,0 -1.5,-1.055556 -1.5,-3.5 0,-2.444444 -0.45239,-3.5 -1.5,-3.5 -1.04762,0 -1.5,-1.055556 -1.5,-3.5 0,-2.833333 -0.38096,-3.5 -2,-3.5 -1.55556,0 -2,-0.666667 -2,-3 0,-2 -0.5,-3 -1.500004,-3 -1.047619,0 -1.5,-1.055556 -1.5,-3.5 0,-2.833333 -0.380952,-3.5 -2,-3.5 -1.111111,0 -2,0.666667 -2,1.5 0,0.825 -0.675,1.5 -1.5,1.5 -1.190476,0 -1.5,1.444444 -1.5,7 0,5.555556 0.309524,7 1.5,7 1,0 1.5,1 1.5,3 0,2.333333 0.444444,3 2,3 1.333333,0 2,0.666667 2,2 0,1.619048 0.666667,2 3.500004,2 2.44444,0 3.5,0.452381 3.5,1.5 0,1 1,1.5 3,1.5 2,0 3,-0.5 3,-1.5 z m 16.999996,-34 c 0,-1 -1,-1.5 -3,-1.5 -2,0 -3,-0.5 -3,-1.5 0,-1.215686 -1.61111,-1.5 -8.5,-1.5 -6.888886,0 -8.499996,0.284314 -8.499996,1.5 0,1.047619 -1.05556,1.5 -3.5,1.5 -2.444448,0 -3.500004,0.452381 -3.500004,1.5 0,1.266667 2.333334,1.5 15,1.5 12.66667,0 15,-0.233333 15,-1.5 z m -71,14 c 0,-0.825 -0.675,-1.5 -1.5,-1.5 -1.190476,0 -1.5,-1.444444 -1.5,-7 0,-5.555556 0.309524,-7 1.5,-7 0.825,0 1.5,-0.675 1.5,-1.5 0,-1.190476 1.444444,-1.5 7,-1.5 5.555556,0 7,0.309524 7,1.5 0,0.825 0.675,1.5 1.5,1.5 1.190476,0 1.5,1.444444 1.5,7 0,5.555556 -0.309524,7 -1.5,7 -0.825,0 -1.5,0.675 -1.5,1.5 0,1.190476 -1.444444,1.5 -7,1.5 -5.555556,0 -7,-0.309524 -7,-1.5 z"
     id="path817"
     inkscape:connector-curvature="0" />
</svg>
