<?xml version="1.0" encoding="UTF-8" standalone="no"?>
<!-- Created with Inkscape (http://www.inkscape.org/) -->

<svg
   xmlns:dc="http://purl.org/dc/elements/1.1/"
   xmlns:cc="http://creativecommons.org/ns#"
   xmlns:rdf="http://www.w3.org/1999/02/22-rdf-syntax-ns#"
   xmlns:svg="http://www.w3.org/2000/svg"
   xmlns="http://www.w3.org/2000/svg"
   xmlns:sodipodi="http://sodipodi.sourceforge.net/DTD/sodipodi-0.dtd"
   xmlns:inkscape="http://www.inkscape.org/namespaces/inkscape"
   version="1.1"
   id="svg2"
   width="116"
   height="79"
   viewBox="0 0 116 79"
   sodipodi:docname="vitalTrends.svg"
   inkscape:version="0.92.2 (5c3e80d, 2017-08-06)">
  <metadata
     id="metadata8">
    <rdf:RDF>
      <cc:Work
         rdf:about="">
        <dc:format>image/svg+xml</dc:format>
        <dc:type
           rdf:resource="http://purl.org/dc/dcmitype/StillImage" />
        <dc:title></dc:title>
      </cc:Work>
    </rdf:RDF>
  </metadata>
  <defs
     id="defs6" />
  <sodipodi:namedview
     pagecolor="#ffffff"
     bordercolor="#666666"
     borderopacity="1"
     objecttolerance="10"
     gridtolerance="10"
     guidetolerance="10"
     inkscape:pageopacity="0"
     inkscape:pageshadow="2"
     inkscape:window-width="1327"
     inkscape:window-height="713"
     id="namedview4"
     showgrid="false"
     inkscape:zoom="2.9482759"
     inkscape:cx="58"
     inkscape:cy="39.5"
     inkscape:window-x="39"
     inkscape:window-y="27"
     inkscape:window-maximized="1"
     inkscape:current-layer="svg2" />
  <path
     style="fill:#ffffff;fill-opacity:1"
     d="m 11.695906,70.21345 v -3.5 h 8 8 v 3.5 3.5 h -8 -8 z m 19,0 v -3.5 h 8 8 v 3.5 3.5 h -8 -8 z m 20,0 v -3.5 h 7.5 7.5 v 3.5 3.5 h -7.5 -7.5 z m 18,0 v -3.5 h 8.000004 8 v 3.5 3.5 h -8 -8.000004 z m 20.000004,0 v -3.5 h 7.5 7.5 v 3.5 3.5 h -7.5 -7.5 z m -77.000004,-19 v -3.5 h 8 8 v 3.5 3.5 h -8 -8 z m 19,0 v -3.5 h 8 8 v 3.5 3.5 h -8 -8 z m 20,0 v -3.5 h 7.5 7.5 v 3.5 3.5 h -7.5 -7.5 z m 18,0 v -3.5 h 8.000004 8 v 3.5 3.5 h -8 -8.000004 z m 20.000004,0 v -3.5 h 7.5 7.5 v 3.5 3.5 h -7.5 -7.5 z m -77.000004,-19 v -3.5 h 8 8 v 3.5 3.5 h -8 -8 z m 19,0 v -3.5 h 8 8 v 3.5 3.5 h -8 -8 z m 20,0 v -3.5 h 7.5 7.5 v 3.5 3.5 h -7.5 -7.5 z m 18,0 v -3.5 h 8.000004 8 v 3.5 3.5 h -8 -8.000004 z m 20.000004,0 v -3.5 h 7.5 7.5 v 3.5 3.5 h -7.5 -7.5 z m -77.000004,-19 V 9.7134501 h 8 8 v 3.4999999 3.5 h -8 -8 z m 19,0 V 9.7134501 h 8 8 v 3.4999999 3.5 h -8 -8 z m 20,0 V 9.7134501 h 7.5 7.5 v 3.4999999 3.5 h -7.5 -7.5 z m 18,0 V 9.7134501 h 8.000004 8 v 3.4999999 3.5 h -8 -8.000004 z m 20.000004,0 V 9.7134501 h 7.5 7.5 v 3.4999999 3.5 h -7.5 -7.5 z"
     id="path817"
     inkscape:connector-curvature="0" />
</svg>
