<?xml version="1.0" encoding="UTF-8" standalone="no"?>
<!-- Created with Inkscape (http://www.inkscape.org/) -->

<svg
   xmlns:dc="http://purl.org/dc/elements/1.1/"
   xmlns:cc="http://creativecommons.org/ns#"
   xmlns:rdf="http://www.w3.org/1999/02/22-rdf-syntax-ns#"
   xmlns:svg="http://www.w3.org/2000/svg"
   xmlns="http://www.w3.org/2000/svg"
   xmlns:sodipodi="http://sodipodi.sourceforge.net/DTD/sodipodi-0.dtd"
   xmlns:inkscape="http://www.inkscape.org/namespaces/inkscape"
   version="1.1"
   id="svg2"
   width="123"
   height="83"
   viewBox="0 0 123 83"
   sodipodi:docname="zero.svg"
   inkscape:version="0.92.2 (5c3e80d, 2017-08-06)">
  <metadata
     id="metadata8">
    <rdf:RDF>
      <cc:Work
         rdf:about="">
        <dc:format>image/svg+xml</dc:format>
        <dc:type
           rdf:resource="http://purl.org/dc/dcmitype/StillImage" />
        <dc:title></dc:title>
      </cc:Work>
    </rdf:RDF>
  </metadata>
  <defs
     id="defs6" />
  <sodipodi:namedview
     pagecolor="#ffffff"
     bordercolor="#666666"
     borderopacity="1"
     objecttolerance="10"
     gridtolerance="10"
     guidetolerance="10"
     inkscape:pageopacity="0"
     inkscape:pageshadow="2"
     inkscape:window-width="1327"
     inkscape:window-height="713"
     id="namedview4"
     showgrid="false"
     inkscape:zoom="2.7804878"
     inkscape:cx="61.5"
     inkscape:cy="41.5"
     inkscape:window-x="39"
     inkscape:window-y="27"
     inkscape:window-maximized="1"
     inkscape:current-layer="svg2" />
  <path
     style="fill:#ffffff;fill-opacity:1"
     d="m 56.078951,70.377193 c 0,-0.833333 -0.88889,-1.5 -2,-1.5 -1.61905,0 -2,-0.666667 -2,-3.5 0,-2.444444 -0.45238,-3.5 -1.5,-3.5 -1.04762,0 -1.5,-1.055556 -1.5,-3.5 0,-2.444444 -0.45238,-3.5 -1.5,-3.5 -1.250003,0 -1.500003,-2 -1.500003,-12 0,-10 0.25,-12 1.500003,-12 1.04762,0 1.5,-1.055556 1.5,-3.5 0,-2.444444 0.45238,-3.5 1.5,-3.5 1,0 1.5,-1 1.5,-3 0,-2.333333 0.44444,-3 2,-3 1.33333,0 2,-0.666667 2,-2 0,-1.794872 0.66666,-2 6.5,-2 5.83333,0 6.5,0.205128 6.5,2 0,1.333333 0.66666,2 2,2 1.55555,0 2,0.666667 2,3 0,2 0.5,3 1.5,3 1.04762,0 1.5,1.055556 1.5,3.5 0,2.444444 0.45238,3.5 1.5,3.5 1.25,0 1.5,2 1.5,12 0,10 -0.25,12 -1.5,12 -1.04762,0 -1.5,1.055556 -1.5,3.5 0,2.444444 -0.45238,3.5 -1.5,3.5 -1.04762,0 -1.5,1.055556 -1.5,3.5 0,2.833333 -0.38096,3.5 -2,3.5 -1.11111,0 -2,0.666667 -2,1.5 0,1.179487 -1.38889,1.5 -6.5,1.5 -5.11111,0 -6.5,-0.320513 -6.5,-1.5 z m 10,-7 c 0,-0.825 0.675,-1.5 1.5,-1.5 1.04762,0 1.5,-1.055556 1.5,-3.5 0,-2.833333 0.38095,-3.5 2,-3.5 1.88889,0 2,-0.666667 2,-12 0,-11.333333 -0.11111,-12 -2,-12 -1.61905,0 -2,-0.666667 -2,-3.5 0,-2.444444 -0.45238,-3.5 -1.5,-3.5 -0.825,0 -1.5,-0.675 -1.5,-1.5 0,-1.047619 -1.05556,-1.5 -3.5,-1.5 -2.44445,0 -3.5,0.452381 -3.5,1.5 0,0.825 -0.675,1.5 -1.5,1.5 -1.04762,0 -1.5,1.055556 -1.5,3.5 0,2.833333 -0.38096,3.5 -2,3.5 -1.88889,0 -2,0.666667 -2,12 0,11.333333 0.11111,12 2,12 1.61904,0 2,0.666667 2,3.5 0,2.444444 0.45238,3.5 1.5,3.5 0.825,0 1.5,0.675 1.5,1.5 0,1.047619 1.05555,1.5 3.5,1.5 2.44444,0 3.5,-0.452381 3.5,-1.5 z m -44.000003,-10 c 0,-0.833333 0.888889,-1.5 2,-1.5 1.333333,0 2,-0.666667 2,-2 0,-1.111111 0.666667,-2 1.5,-2 0.825,0 1.5,-0.675 1.5,-1.5 0,-1.25 -2,-1.5 -12,-1.5 H 5.0789477 v -3.5 -3.5 H 17.078948 c 10,0 12,-0.25 12,-1.5 0,-0.825 -0.675,-1.5 -1.5,-1.5 -0.833333,0 -1.5,-0.888889 -1.5,-2 0,-1.333333 -0.666667,-2 -2,-2 -1.111111,0 -2,-0.666667 -2,-1.5 0,-1.047619 1.055556,-1.5 3.5,-1.5 2.444444,0 3.5,0.452381 3.5,1.5 0,0.825 0.675,1.5 1.5,1.5 0.833333,0 1.5,0.888889 1.5,2 0,1.333333 0.666667,2 2,2 1.111111,0 2,0.666667 2,1.5 0,0.825 0.675,1.5 1.5,1.5 1.047619,0 1.5,1.055556 1.5,3.5 0,2.444444 -0.452381,3.5 -1.5,3.5 -0.825,0 -1.5,0.675 -1.5,1.5 0,0.833333 -0.888889,1.5 -2,1.5 -1.333333,0 -2,0.666667 -2,2 0,1.111111 -0.666667,2 -1.5,2 -0.825,0 -1.5,0.675 -1.5,1.5 0,1.047619 -1.055556,1.5 -3.5,1.5 -2.444444,0 -3.5,-0.452381 -3.5,-1.5 z m 74.000003,0 c 0,-0.825 -0.675,-1.5 -1.5,-1.5 -0.83334,0 -1.5,-0.888889 -1.5,-2 0,-1.333333 -0.66667,-2 -2,-2 -1.11111,0 -2,-0.666667 -2,-1.5 0,-0.825 -0.675,-1.5 -1.5,-1.5 -1.04762,0 -1.5,-1.055556 -1.5,-3.5 0,-2.444444 0.45238,-3.5 1.5,-3.5 0.825,0 1.5,-0.675 1.5,-1.5 0,-0.833333 0.88889,-1.5 2,-1.5 1.33333,0 2,-0.666667 2,-2 0,-1.111111 0.66666,-2 1.5,-2 0.825,0 1.5,-0.675 1.5,-1.5 0,-1.047619 1.05555,-1.5 3.5,-1.5 2.444439,0 3.499999,0.452381 3.499999,1.5 0,0.833333 -0.88889,1.5 -2,1.5 -1.333339,0 -1.999999,0.666667 -1.999999,2 0,1.111111 -0.66667,2 -1.5,2 -0.825,0 -1.5,0.675 -1.5,1.5 0,1.25 2,1.5 11.999999,1.5 h 12 v 3.5 3.5 h -12 c -9.999999,0 -11.999999,0.25 -11.999999,1.5 0,0.825 0.675,1.5 1.5,1.5 0.83333,0 1.5,0.888889 1.5,2 0,1.333333 0.66666,2 1.999999,2 1.11111,0 2,0.666667 2,1.5 0,1.047619 -1.05556,1.5 -3.499999,1.5 -2.44445,0 -3.5,-0.452381 -3.5,-1.5 z"
     id="path817"
     inkscape:connector-curvature="0" />
</svg>
